<svg width="498" height="498" viewBox="0 0 498 498" fill="none" xmlns="http://www.w3.org/2000/svg">
<path d="M92.0504 380.327C92.0504 380.074 92.0698 380.133 92.1087 380.152C92.1866 380.21 92.1865 380.23 92.2254 380.347C92.4589 380.872 92.7702 381.358 93.1592 381.786C93.6066 382.311 94.1318 382.914 94.7154 383.517C95.0072 383.848 95.2991 384.198 95.5519 384.587C95.727 384.801 95.8826 385.035 95.9994 385.288C96.0966 385.443 96.1744 385.618 96.2523 385.794C96.3495 386.066 96.4079 386.338 96.4468 386.63C96.4662 386.747 96.4662 386.863 96.4662 386.961C96.4857 387.311 96.4079 387.642 96.2717 387.953C96.1355 388.361 95.8826 388.731 95.5714 389.042C95.2213 389.392 94.8128 389.704 94.3653 389.937C93.6456 390.326 92.9842 390.579 92.42 390.832C90.6693 391.474 88.9379 392.194 87.2647 393.03C86.8562 393.264 86.4671 393.516 86.0975 393.808C85.8252 394.061 85.5917 394.197 85.4555 394.119C85.3193 394.042 85.2221 393.808 85.2221 393.419C85.3388 392.777 85.5917 392.174 86.0002 391.668C87.4009 390.112 89.0738 388.828 90.9219 387.856C91.3887 387.544 91.8751 387.233 92.303 386.922C92.1279 386.747 91.9723 386.591 91.7389 386.397C91.2136 385.891 90.5717 385.327 89.9492 384.646L89.9297 384.665C89.1321 383.868 88.4902 382.934 88.0427 381.903C87.926 381.572 87.8093 381.203 87.751 380.852C87.751 380.775 87.7315 380.424 87.7315 380.424L87.712 380.347L87.6926 380.211V379.685C87.3813 379.938 87.109 380.191 86.7977 380.405C84.3077 381.981 81.5453 383.07 78.647 383.595C74.3089 384.121 70.3015 386.183 67.3449 389.373C67.7728 389.412 68.2008 389.47 68.6093 389.548C69.0373 389.626 69.3875 389.782 69.7765 389.879C69.8543 389.665 69.9711 389.451 70.0878 389.237C70.7881 388.245 71.7997 387.486 72.9668 387.117C74.6203 386.572 76.3906 386.63 78.0051 387.272C80.4951 388.303 81.2343 389.918 80.8647 390.268C80.4756 390.715 79.2112 390.21 77.3242 390.21V390.229C76.3516 390.151 75.3984 390.365 74.5424 390.832C73.7643 391.318 73.5892 391.805 73.5309 392.972L73.3947 396.065L70.2433 395.034V395.014C69.4263 394.664 68.5509 394.392 67.6756 394.197C67.0725 394.042 66.4306 394.022 65.8275 394.12C65.4968 394.236 65.5163 394.197 65.3801 394.45C65.0689 395.014 65.5941 396.24 66.2944 396.901C66.9364 397.524 67.695 398.01 68.5315 398.322C69.3485 398.574 69.796 398.886 69.796 399.197C69.796 399.508 69.368 399.878 68.5899 400.17V400.189C67.2087 400.539 65.7497 400.364 64.4658 399.703C64.0184 399.508 63.5904 399.236 63.2013 398.886C62.7539 398.555 62.3843 398.146 62.0925 397.66C61.4894 396.863 61.1392 395.909 61.042 394.917C59.3496 396.532 59.1745 399.197 60.6918 401.026C61.5672 402.057 61.8979 403.438 61.5867 404.761C80.2617 404.119 98.8396 403.166 117.477 402.485C128.527 402.096 139.693 401.395 150.781 401.668C157.453 401.843 165.06 402.31 165.254 393.692V393.711C165.02 393.419 164.826 393.128 164.67 392.797C163.406 389.976 161.558 387.467 159.243 385.405C158.815 385.074 156.403 385.21 155.177 384.51C152.571 382.953 151.89 379.958 148.816 378.985C146.171 378.187 143.467 377.526 140.763 377.001C140.062 376.845 139.401 376.514 138.876 376.009C136.58 375.269 134.09 375.483 131.951 376.612C132.34 376.845 132.69 377.117 133.02 377.409C134.051 378.304 134.868 379.393 135.433 380.638C135.763 380.463 136.113 380.308 136.444 380.152V380.172C138 379.607 139.712 379.53 141.327 379.919C143.7 380.502 145.86 381.825 147.474 383.673C150.12 386.649 150.392 389.061 149.945 389.237C149.42 389.509 148.175 387.758 145.509 385.871V385.852C144.07 384.801 142.397 384.101 140.646 383.809C138.72 383.615 136.853 384.51 135.763 386.105L131.97 390.91L131.698 384.626C131.62 383.187 130.939 381.845 129.85 380.93C129.111 380.113 128.041 379.705 126.951 379.802C126.679 379.802 126.523 380.074 126.251 380.444C126.134 380.697 126.037 380.95 125.979 381.222L125.784 382.175L125.278 384.704L123.489 384.199C123.508 384.821 123.566 385.58 123.547 386.475H123.527C123.527 386.766 123.508 387.078 123.45 387.369C123.391 387.661 123.313 387.953 123.197 388.206C123.08 388.692 122.905 389.159 122.671 389.587L122.302 390.287C122.088 390.54 121.874 390.774 121.621 390.988C121.174 391.396 120.609 391.63 120.006 391.688C118.878 391.688 117.789 391.532 116.719 391.221C115.999 391.085 115.591 390.89 115.591 390.637C115.591 390.385 115.921 390.171 116.622 389.879C117.244 389.587 118.664 389.451 119.481 389.179C119.734 388.926 119.617 389.101 119.792 388.42C119.89 388.089 119.948 387.758 119.968 387.428C119.968 387.311 120.026 387.039 120.026 387C120.045 386.864 120.026 386.708 119.968 386.552C119.773 385.58 119.617 384.588 119.52 383.576C119.501 383.129 119.559 382.681 119.695 382.234C119.89 381.553 120.318 380.95 120.901 380.522C121.174 380.366 121.446 380.25 121.738 380.133C121.835 379.608 121.991 379.082 122.185 378.577C122.788 377.176 123.897 376.067 125.298 375.503C125.589 375.386 125.901 375.308 126.231 375.25C126.212 375.192 126.115 375.133 126.095 375.075C123.761 371.145 117.225 370.367 113.081 370.931H113.062C111.992 371.068 110.902 370.834 110.007 370.251C108.762 371.904 106.506 372.41 104.677 371.418C101.779 369.628 98.0051 370.348 95.9818 373.091L95.8845 373.188C96.6821 373.48 97.4407 373.869 98.141 374.355C98.5106 374.628 98.8219 374.939 99.1526 375.231C99.386 375.094 99.6389 374.919 99.8723 374.783V374.764C101.156 374.2 102.596 374.141 103.919 374.608C105.066 374.997 106.097 375.736 106.837 376.709C106.895 376.651 106.973 376.592 107.07 376.573C107.906 376.184 108.84 375.989 109.793 376.028C111.077 376.087 112.322 376.359 113.509 376.845C115.357 377.623 116.194 378.363 116.096 378.693C115.98 379.082 114.851 379.063 113.042 378.946C111 378.771 108.879 378.771 107.907 380.736C107.537 381.514 108.179 382.584 106.74 382.72C105.864 382.798 105.183 381.553 104.794 380.95C104.113 379.919 102.401 377.195 101.39 379.452L99.7364 383.187L97.3826 380.016V380.055C96.41 378.674 94.951 377.721 93.3169 377.351C92.8695 377.39 92.8695 377.409 92.7333 377.526C92.4804 377.876 92.3442 378.304 92.3053 378.732C92.208 379.082 92.1497 379.452 92.1302 379.822L92.0524 380.152L92.0504 380.327ZM306.639 222.252L306.288 222.427L305.355 222.875C304.713 223.264 304.071 223.692 303.409 224.158C298.157 228.749 292.613 232.601 288.839 235.461C284.968 238.262 282.361 239.779 281.933 239.273C281.505 238.768 283.314 236.414 286.602 232.971C289.851 229.411 294.85 225.365 300.511 220.423H300.55C301.367 219.801 302.203 219.237 303.098 218.751L304.557 218.109L304.927 217.933L305.121 217.856L305.199 217.836L305.219 217.817L305.472 217.758L306.114 217.622C306.483 217.544 306.892 217.447 307.281 217.369C302.515 214.938 298.332 212.37 295.239 210.697C291.349 208.674 288.819 207.41 288.975 206.709C289.092 206.126 292.029 206.281 296.581 207.604C301.133 209.121 306.541 211.942 312.883 214.841C315.412 216.066 317.785 217.136 320.061 218.148H320.119L320.139 218.128C322.104 218.653 323.991 219.431 325.761 220.462C326.85 220.852 327.901 221.221 328.854 221.532C332.744 222.875 335.779 222.797 335.857 223.517C335.915 224.081 333.269 225.423 328.192 224.801C325.799 224.489 323.465 223.964 321.189 223.205C325.78 229.061 329.768 235.402 333.036 242.095C337.977 251.277 345.35 258.357 350.544 267.228C350.719 267.5 350.855 267.792 350.933 268.084C355.426 265.613 359.92 263.182 364.452 260.789V260.809C364.433 258.961 364.589 257.113 364.9 255.303C360.017 254.467 355.29 252.891 350.874 250.635C348.87 249.545 346.964 248.3 345.155 246.919C343.56 245.771 342.043 244.487 340.661 243.087C335.506 237.815 333.814 233.866 334.203 233.496C334.767 232.991 337.646 236.473 342.879 240.539C344.299 241.686 345.797 242.737 347.353 243.69C349.123 244.818 350.952 245.81 352.839 246.705C356.613 248.417 360.601 249.662 364.667 250.44C365.445 247.97 366.184 245.421 367.215 242.951C353.831 238.671 345.778 233.127 346.108 232.446C346.595 231.357 355.641 235.442 368.868 238.866L368.888 238.885C368.907 238.593 368.946 238.302 369.024 238.029C370.094 234.177 371.008 230.306 372.273 226.494C371.923 225.618 371.942 224.645 372.292 223.77C373.206 219.471 372.915 215.016 371.436 210.873C352.975 211.398 338.483 202.644 327.589 189.766C325.721 190.291 323.796 190.68 321.87 190.933C320.664 193.696 319.633 196.555 318.777 199.454C318.252 201.846 318.135 203.403 317.551 203.519C317.123 203.578 316.228 202.119 316.034 199.24C315.995 196.672 316.365 194.104 317.143 191.634C315.898 191.711 314.633 191.828 313.388 192.023C313.155 192.062 312.941 192.12 312.727 192.198C312.727 193.073 312.61 193.851 312.552 194.61C312.377 195.933 312.182 197.139 311.988 198.267C311.599 200.154 311.287 202.061 311.093 203.986C310.937 204.998 311.054 206.029 311.404 206.982C311.424 207.274 311.852 207.507 312.046 207.721C312.241 207.916 312.318 208.091 312.299 208.227C312.26 208.363 312.104 208.48 311.832 208.558H311.813C311.385 208.713 310.898 208.655 310.509 208.422C309.011 207.507 308.058 205.912 307.941 204.181C307.689 202.041 307.65 199.901 307.844 197.761C307.922 196.633 307.98 195.466 308.078 194.259H308.058C308.117 193.384 308.117 192.509 308.039 191.633C305.86 191.633 303.72 191.633 301.619 191.653C294.655 191.828 282.71 191.886 276.194 191.906V191.925C280.746 201.321 283.878 211.339 285.512 221.669C285.804 223.673 284.734 225.618 282.886 226.455C277.867 240.539 259.406 252.989 244.446 252.288C236.47 266.937 234.369 282.888 232.015 299.248C230.79 307.788 229.623 315.978 222.289 320.705L222.308 320.725C221.764 324.674 220.927 328.584 219.799 332.397C219.585 333.292 219.06 334.07 218.32 334.614C218.515 337.085 218.651 339.555 219.021 342.007C228.163 336.151 237.735 330.763 247.422 325.51C247.286 324.752 247.15 323.993 247.033 323.273C246.955 322.456 246.955 321.717 246.916 320.919C246.858 319.402 246.936 318.196 246.858 316.756L246.839 315.725C246.839 315.648 246.819 315.336 246.819 315.336L246.761 314.85C246.644 314.208 246.566 313.566 246.449 312.905C246.274 311.64 246.08 310.376 245.924 309.17H245.905C245.166 304.929 244.193 300.727 242.967 296.584C242.403 294.852 242.092 293.218 241.567 291.837C241.042 290.456 240.633 289.25 240.302 288.238C239.68 286.293 239.466 285.126 239.719 285.009C239.972 284.892 240.73 285.787 241.82 287.538C242.384 288.433 243.026 289.542 243.765 290.826C244.504 292.09 245.088 293.744 245.846 295.494H245.827C247.578 299.677 248.959 303.995 249.951 308.412C250.204 309.676 250.457 310.979 250.71 312.302C250.826 312.983 250.963 313.644 251.079 314.325L251.196 314.851C251.254 315.278 251.215 315.24 251.254 315.492L251.332 316.504C251.449 317.827 251.41 319.441 251.507 320.784C251.546 321.251 251.566 321.756 251.585 322.243C252.85 321.931 254.056 321.62 255.262 321.348C258.88 319.403 262.498 317.496 266.097 315.59C266.156 315.395 266.039 315.376 266.097 315.22H266.078C266.117 314.987 266.117 314.754 266.058 314.52C265.903 313.256 265.533 312.03 264.969 310.902C262.265 305.649 259.911 300.689 257.966 296.584C254.328 288.161 252.461 282.812 253.064 282.559C253.647 282.306 256.565 287.13 260.923 295.048C263.063 298.646 265.436 302.829 268.101 307.614C268.86 303.821 269.618 300.066 270.552 296.331H270.533C270.377 295.086 270.805 293.841 271.7 292.966C278.411 286.041 275.396 278.629 277.166 270.517C278.547 264.273 280.96 258.32 284.325 252.873L282.808 253.807C275.026 258.242 267.771 261.588 262.615 264.078C257.46 266.568 254.114 268.066 253.745 267.502C253.434 266.976 256.021 264.448 260.962 261.16C265.806 257.873 272.887 254.04 280.454 249.722C284.209 247.543 287.691 245.345 290.784 243.244C290.803 243.224 290.803 243.224 290.842 243.224C295.977 236.143 301.503 229.372 306.639 222.252ZM448.026 458.065H448.006C449.446 465.788 446.197 473.627 439.739 478.063C422.873 488.995 403.069 477.674 392.993 463.084C388.791 462.033 384.842 460.146 381.379 457.559C379.92 456.645 379.142 454.972 379.356 453.279C379.317 453.143 379.298 453.026 379.298 452.89C378.909 448.708 379.434 444.486 380.854 440.518C380.329 439.779 380.134 438.845 380.329 437.97C380.154 437.814 380.018 437.658 379.882 437.483C373.287 428.515 373.209 416.085 369.591 405.716L369.571 405.736C364.825 393.208 362.763 379.824 363.561 366.46C364.144 357.239 365.778 346.793 362.782 337.825C361.051 332.69 359.106 327.67 357.764 322.418C356.285 316.64 359.164 309.715 356.985 304.229C355.643 300.883 354.067 297.771 352.706 294.503C335.003 304.152 317.632 314.676 300.122 324.325C290.24 329.791 280.357 335.238 270.475 340.626C270.806 341.424 270.903 342.299 270.748 343.155C268.219 357.414 271.779 370.429 271.584 384.59C271.409 396.184 270.184 407.662 269.114 419.178V419.197C269.055 419.878 268.841 420.54 268.472 421.143C269.814 426.59 269.97 432.27 268.919 437.795C269.036 441.997 268.433 446.179 267.168 450.167C264.426 456.489 256.897 456.023 251.042 456.003C250.906 456.061 250.789 456.139 250.614 456.198C228.204 464.057 205.949 459.427 182.876 458.085C181.514 458.046 180.25 457.326 179.53 456.178C179.413 456.061 179.296 455.945 179.18 455.809C173.032 447.93 175.892 435.071 182.934 428.399C190.754 421.007 198.302 426.006 207.309 426.182C209.273 424.528 211.044 422.66 212.581 420.598C212.153 419.918 211.9 419.12 211.861 418.303C211.725 417.914 211.627 417.505 211.608 417.097C211.083 403.655 211.219 390.232 211.978 376.829C211.802 377.062 211.627 377.276 211.413 377.452C208.048 380.194 203.905 381.79 199.586 382.004C199.45 382.004 199.333 382.042 199.197 382.042C198.827 382.042 198.185 384.649 197.407 385.855C195.501 388.423 192.272 389.688 189.12 389.085C187.875 388.929 186.669 388.657 185.482 388.267C184.665 388.073 183.868 387.781 183.148 387.373C179.724 389.143 176.534 391.341 173.655 393.928C173.888 411.864 160.252 409.88 145.175 410.152C116.229 410.658 87.3226 412.428 58.3938 413.323C54.5032 413.44 51.0792 411.883 51.1185 407.409C51.1185 406.203 52.6359 405.308 52.6747 404.414C52.7331 403.694 52.0522 403.402 51.8966 402.779L51.9161 402.76C51.741 401.885 51.6437 400.99 51.6243 400.095C51.3908 398.266 51.4492 396.418 51.8188 394.609C52.7331 390.816 55.4566 387.723 59.0941 386.361C62.0315 381.401 66.8365 377.841 72.4196 376.459C76.0768 376.129 79.5978 374.923 82.6908 372.919C84.8307 370.526 87.3596 368.503 90.1803 366.947C90.1997 366.947 90.2386 366.927 90.2581 366.927V366.908C94.9268 361.831 102.475 360.605 108.505 363.971C109.089 363.309 109.906 362.881 110.801 362.803C117.765 361.85 126.169 362.881 131.227 368.114V368.095C135.176 366.674 139.533 366.947 143.288 368.834L143.541 369.009V368.989C146.984 369.515 150.349 370.487 153.559 371.888C155.699 373.172 157.586 374.845 159.123 376.81C160.368 376.848 161.593 377.14 162.721 377.685C165.406 374.611 168.538 371.927 172.001 369.748C172.098 369.689 172.195 369.65 172.312 369.631C171.184 366.11 171.106 362.336 172.117 358.776C174.977 350.45 180.93 343.817 182.953 335.102H182.933C183.031 334.674 183.167 334.285 183.4 333.935C183.614 332.904 184.217 332.009 185.073 331.406C185.054 327.223 186.065 323.118 188.011 319.423C186.299 319.15 184.587 318.898 182.855 318.645C181.007 318.178 179.743 316.505 179.762 314.598C180.132 300.826 186.629 288.2 187.894 274.311H187.913C188.361 268.436 189.489 262.639 191.279 257.037C193.38 250.5 191.142 245.054 190.442 238.517C189.82 232.856 193.983 224.511 195.733 219.122C198.885 209.59 201.297 201.634 198.379 191.421C194.449 177.784 200.849 164.226 200.324 150.764V150.783C200.305 150.258 200.383 149.733 200.577 149.227C198.943 146.27 197.562 143.177 196.473 139.987C196.045 138.897 196.161 137.672 196.803 136.68C196.9 136.466 196.998 136.252 197.114 136.057C199.332 132.653 201.744 129.385 204.351 126.272C198.281 124.385 192.971 120.631 189.177 115.515C188.419 114.561 188.224 113.278 188.652 112.13C189.177 108.181 190.189 104.329 191.648 100.633C175.852 79.7792 184.917 50.0163 201.277 31.4558C219.816 10.5632 250.358 10.6215 270.609 29.5688C278.546 32.4673 285.685 37.1942 287.844 45.8704H287.825C287.902 46.2205 287.941 46.5706 287.98 46.9403C288.058 47.3682 288.077 47.8156 288 48.263C305.566 47.0958 323.21 46.3178 339.822 53.0679V53.0485C341.358 52.7178 342.973 53.1847 344.101 54.2935C359.703 65.9457 372.853 76.3146 381.801 94.3671C387.112 104.522 393.901 113.82 401.974 121.932C408.18 128.605 414.6 141.327 421.972 146.229H421.992C422.672 146.696 423.217 147.338 423.548 148.116C423.976 148.642 424.268 149.264 424.384 149.945C428.275 170.449 419.482 187.314 416.214 207.08C414.813 215.581 414.755 225.464 409.6 231.65C412.849 242.446 416.72 253.048 421.213 263.397C425.338 273.591 422.108 281.625 421.894 292.091C421.369 316.563 429.326 340.996 432.243 365.217C432.282 365.625 432.282 366.053 432.224 366.462C432.224 366.637 432.243 366.793 432.243 366.968C431.932 383.736 426.777 401.613 433.138 417.779C433.235 418.031 433.313 418.284 433.372 418.557C434.033 419.315 434.383 420.307 434.344 421.319V432.543C434.422 434.061 433.624 435.481 432.302 436.22C437.593 443.71 445.763 448.359 448 458.066L448.026 458.065ZM439.661 461.683C439.68 461.605 439.778 461.605 439.836 461.547C439.525 456.042 434.701 451.042 430.11 446.179H430.09C426.939 447.483 423.34 447.269 420.364 445.557C420.383 447.658 419.722 449.72 418.496 451.451C416.337 454.136 412.971 455.575 409.548 455.283C416.842 463.454 430.693 473.141 439.642 461.684L439.661 461.683ZM436.315 470.048C436.509 469.854 436.646 469.62 436.821 469.426C431.023 472.149 424.215 470.379 417.426 467.636C413.516 466.216 410.131 463.609 407.777 460.166C402.661 453.727 395.755 448.942 387.916 446.432C387.643 448.144 387.565 449.895 387.643 451.646C390.094 453.299 392.837 454.486 395.736 455.089C397.098 455.128 398.362 455.867 399.062 457.034C402.428 463.084 407.505 467.986 413.672 471.157C420.091 474.036 430.868 476.079 436.315 470.048ZM417.095 438.398C419.449 440.382 423.904 443.611 427.133 442.95C425.693 441.374 424.429 439.643 423.359 437.814C423.339 437.776 423.339 437.756 423.301 437.737C421.2 437.873 419.118 438.087 417.095 438.398ZM425.927 429.08V426.356C425.499 426.57 425.032 426.745 424.565 426.862C422.075 427.329 419.527 427.193 417.095 426.473C416.2 426.259 415.325 425.967 414.488 425.714C414.274 426.298 413.943 426.843 413.496 427.271C413.029 427.718 412.485 428.088 411.881 428.34C410.15 429.021 408.322 429.352 406.454 429.333C404.801 429.391 403.147 429.235 401.513 428.885C399.957 428.535 398.459 427.971 397.058 427.193C394.646 425.773 392.467 423.963 390.639 421.843C389.102 420.092 387.721 418.225 386.515 416.26C384.783 413.517 383.246 410.677 381.943 407.72C381.009 405.639 380.62 404.472 380.873 404.316C381.126 404.18 381.963 405.075 383.305 406.865C384.647 408.654 386.476 411.378 388.946 414.529V414.549C391.572 418.264 394.977 421.357 398.906 423.614C399.412 423.886 399.957 424.12 400.521 424.275C401.124 424.489 401.746 424.664 402.388 424.762C403.692 424.975 405.014 425.053 406.318 424.956C407.563 424.937 408.808 424.703 409.975 424.256C410.033 424.236 410.053 424.197 410.111 424.178V424.158C410.033 424.022 409.956 423.867 409.858 423.75L406.007 418.128L412.426 420.171C414.449 420.813 416.317 421.455 418.204 421.902L418.224 421.921C419.897 422.427 421.667 422.563 423.398 422.291C423.982 422.174 424.39 421.785 424.429 421.844L424.818 421.202L424.838 421.143H424.857C424.877 421.124 424.877 421.104 424.896 421.085L424.955 420.89C424.974 420.774 425.032 420.657 425.091 420.54C425.091 420.462 425.071 420.424 425.091 420.365C425.11 420.307 425.207 420.19 424.604 419.743V419.762C423.962 419.295 423.262 418.906 422.542 418.595C419.177 417.039 415.773 415.424 412.66 413.771C406.999 410.95 401.708 407.468 396.864 403.422C393.537 400.659 390.756 397.313 388.636 393.539C388.052 392.528 387.605 391.438 387.293 390.31C387.079 389.551 387.04 389.143 387.177 389.046C387.857 388.715 390.6 394.765 398.965 400.795V400.815C403.887 404.316 409.139 407.351 414.625 409.899C417.29 411.183 420.13 412.448 423.106 413.79H423.087C421.531 406.145 421.161 398.305 421.997 390.563C419.332 389.104 416.609 387.781 413.691 386.283C411.901 385.447 410.52 384.435 408.944 383.56C407.485 382.606 406.026 381.673 404.626 380.778C398.984 377.412 393.518 374.611 389.258 371.596C387.313 370.292 385.445 368.853 383.675 367.316C382.216 365.76 380.893 364.456 380.037 363.309C378.52 360.896 377.819 359.476 378.092 359.262C378.364 359.068 379.551 360.099 381.516 362.18C382.585 363.114 383.928 364.067 385.406 365.273C387.118 366.285 388.83 367.666 391.067 368.775C395.347 371.304 400.852 373.716 406.863 377.003C408.322 377.879 409.82 378.774 411.318 379.669C412.835 380.486 414.411 381.555 415.986 382.217C417.932 383.17 420.188 384.201 422.503 385.388C422.815 381.983 423.145 378.56 423.437 375.175L423.067 374.436C422.367 372.879 421.589 371.381 420.733 369.922C417.815 364.845 414.605 359.943 411.123 355.255C405.151 347.065 401.552 341.793 402.116 341.365C402.622 340.995 407.057 345.431 413.749 353.173H413.769C417.465 357.453 420.85 362.005 423.884 366.79C423.884 366.479 423.923 366.187 423.981 365.896C423.923 365.662 423.884 365.448 423.845 365.215C421.161 342.805 412.874 319.539 413.379 296.894C413.515 290.436 415.285 283.938 415.324 277.538C415.383 270.049 412.834 265.477 409.975 258.863C406.94 251.743 404.372 244.429 402.291 236.979C400.89 239.838 399.742 242.834 398.906 245.908C398.789 246.375 398.614 246.822 398.361 247.25C402.544 253.144 407.446 258.494 411.356 264.641C412.348 266.567 411.998 268.921 410.461 270.458C404.178 275.846 402.836 284.97 395.288 289.308C387.468 293.802 380.99 288.102 375.951 282.655C371.399 284.795 366.925 287.052 362.432 289.386C362.976 289.639 363.521 289.912 364.027 290.223C365.797 291.234 367.256 292.441 368.52 293.063C371.574 294.619 374.239 296.117 376.496 297.343C380.99 299.697 383.597 301.389 383.344 301.914C383.091 302.44 380.056 301.72 375.174 300.086C372.723 299.249 369.921 298.063 366.75 296.74C364.844 295.923 363.443 294.892 361.868 294.094C361.79 294.036 361.673 294.016 361.595 293.958C362.218 295.397 362.86 296.798 363.443 298.199L364.436 299.541L365.408 300.708L366.4 301.875L367.529 302.906L367.509 302.926C368.19 303.646 368.949 304.288 369.746 304.871C372.567 307.069 375.563 309.034 378.675 310.804C384.083 313.917 387.487 315.998 387.196 316.621C386.904 317.243 383.13 316.232 377.177 313.82V313.8C373.656 312.361 370.272 310.552 367.14 308.392C366.731 308.12 366.342 307.828 365.972 307.517C365.622 310.688 365.467 313.897 365.486 317.088C367.004 328.721 373.092 338.428 372.781 350.47C372.295 367.296 370.485 382.82 376.166 399.102C379.823 409.509 380.659 424.391 387.137 433.184H387.157C387.487 433.632 387.721 434.138 387.857 434.682C388.304 434.818 388.732 435.013 389.141 435.266C395.055 436.297 401.746 432.465 407.174 431.083C413.341 429.702 419.624 429.021 425.927 429.08ZM413.049 186.285C416.784 175.391 417.893 163.778 416.278 152.397C409.1 146.795 405.501 138.06 399.237 131.349C392.817 124.482 385.173 117.965 380.446 109.717C374.921 100.126 370.953 89.5049 363.404 81.1789H363.424C357.394 74.8567 350.701 69.1761 343.504 64.2354C341.228 71.1994 340.158 78.4946 340.352 85.8088C341.753 94.7573 343.737 103.589 346.266 112.265C348.464 122.283 349.243 134.928 355.507 143.993C355.234 142.787 355.137 141.542 355.215 140.297C355.526 137.087 356.032 133.897 356.732 130.765C356.946 129.617 356.81 128.43 356.304 127.36C355.74 126.232 354.787 124.754 354.067 123.47C353.328 122.186 352.628 120.552 351.927 119.112C351.344 117.653 350.974 116.175 350.488 114.774H350.507C349.282 109.736 348.737 104.561 348.873 99.3672C349.204 90.6328 350.974 85.5557 351.558 85.5557C352.297 85.6724 351.674 91.0028 352.2 99.3089H352.219C352.55 104.153 353.386 108.919 354.709 113.568C355.157 114.794 355.546 116.117 356.11 117.381C356.752 118.587 357.277 119.793 358.055 121.116C358.872 122.497 359.65 123.586 360.545 125.298L361.129 126.738C361.265 127.263 361.362 127.808 361.459 128.333H361.479C361.596 129.325 361.576 130.317 361.42 131.309C360.915 134.967 359.961 137.787 359.864 140.511C359.553 142.904 360.195 145.335 361.673 147.261L362.257 147.845L362.51 148.176V148.195C362.568 148.215 362.627 148.253 362.685 148.312L363.521 148.876L364.163 149.168V149.148C365.194 149.576 366.264 149.868 367.354 150.043C369.552 150.393 371.77 150.549 373.968 150.549C378.15 150.529 381.632 150.315 384.044 150.413C386.456 150.432 387.838 150.724 387.838 151.055C387.838 151.385 386.554 151.736 384.219 152.222C380.893 152.961 377.527 153.506 374.143 153.875C371.711 154.128 369.26 154.148 366.828 153.934C366.05 153.856 365.272 153.7 364.474 153.545H364.455C364.61 154.284 364.571 155.043 364.319 155.762C364.396 156.054 364.435 156.346 364.435 156.657C364.552 159.283 364.922 161.89 365.564 164.438C367.139 163.602 368.987 163.427 370.719 163.913C372.275 164.244 373.559 164.672 374.785 165.003C375.874 165.353 377.002 165.547 378.15 165.586C380.387 165.411 382.838 165.372 384.978 165.119C387.079 164.672 389.122 164.38 390.931 163.952C392.662 163.388 394.296 162.921 395.736 162.513C397.175 162.124 398.381 161.482 399.412 161.131C401.455 160.353 402.661 160.1 402.816 160.353C402.953 160.606 402.038 161.482 400.288 162.746H400.268C399.198 163.524 398.07 164.244 396.903 164.847C395.463 165.547 393.81 166.306 391.942 167.084C390.055 167.784 387.935 168.29 385.659 168.932C383.305 169.38 380.893 169.613 378.053 169.885V169.905C376.575 169.905 375.096 169.71 373.676 169.36C371.478 168.835 365.759 165.664 366.44 170.255C366.751 172.356 369.747 174.068 371.011 175.585V175.604C373.229 176.227 375.524 176.538 377.82 176.519C382.119 176.966 386.438 176.733 390.659 175.818C397.779 173.912 402.039 171.422 402.409 172.122C402.681 172.55 399.218 176.052 391.631 179.028C388.11 180.215 384.395 180.837 380.66 180.876C384.998 182.53 389.472 183.755 394.044 184.494C395.755 184.728 397.506 184.67 399.179 184.3C399.685 184.203 400.171 184.047 400.638 183.852C401.027 183.736 401.26 183.736 401.358 183.852C401.474 183.969 401.416 184.242 401.241 184.592L401.26 184.572C400.988 185.098 400.58 185.545 400.093 185.856C398.304 187.121 396.164 187.782 393.985 187.801C389.083 187.84 384.219 187.023 379.59 185.389C379.59 186.556 379.531 187.724 379.453 188.891C379.823 189.222 380.212 189.533 380.621 189.805L381.652 190.447L382.488 190.778C383.091 191.031 383.714 191.245 384.336 191.42C385.581 191.809 386.846 192.101 388.13 192.295C392.934 193.112 396.125 193.501 396.125 194.202C396.105 194.824 393.071 195.602 387.818 195.641C386.359 195.641 384.9 195.524 383.441 195.271C382.585 195.135 381.729 194.921 380.912 194.63C380.446 194.454 379.979 194.299 379.512 194.124C379.376 194.065 379.239 193.988 379.123 193.929C378.889 196.73 378.734 199.571 378.734 202.352V202.333C383.791 205.309 389.433 207.177 395.269 207.78C397.156 207.819 399.062 207.624 400.91 207.196C402.311 206.866 403.147 206.71 403.322 207.002C403.497 207.274 402.933 207.994 401.727 208.85C399.84 210.075 397.7 210.854 395.463 211.126C392.195 211.496 388.888 211.184 385.737 210.192C383.48 209.531 381.263 208.694 379.123 207.702C379.24 208.48 379.337 209.258 379.512 209.978C379.707 210.951 379.959 211.924 380.193 212.877V212.857C381.807 215.036 383.85 216.865 386.184 218.265C390.308 220.852 393.479 221.008 393.499 221.767C393.635 222.292 389.939 223.42 384.687 221.261C383.5 220.774 382.372 220.191 381.283 219.491C381.419 221.202 381.263 222.914 380.835 224.548C385.504 227.486 390.367 231.726 395.289 231.979V231.999C395.444 231.668 395.658 231.357 395.892 231.085C396.378 229.937 397.389 229.081 398.615 228.828C407.077 226.669 408.633 206.379 410.559 195.466H410.579C407.058 198.403 403.05 200.68 398.732 202.197C395.036 203.52 392.701 203.753 392.41 203.189C392.137 202.625 394.141 201.166 397.273 199.201V199.182C401.3 196.789 405.093 194.007 408.614 190.914C409.684 189.922 410.695 188.871 411.648 187.743L413.049 186.285ZM411.707 450.927C417.231 449.41 417.095 444.274 413.438 440.812C412.952 440.384 412.738 439.722 412.854 439.08C408.808 439.858 404.781 440.85 400.54 442.057C397.797 442.874 394.977 443.399 392.117 443.613C397 445.364 401.552 447.893 405.617 451.102C407.641 451.355 409.703 451.297 411.707 450.927ZM395.599 277.23C397.584 273.475 399.898 269.915 402.486 266.55C397.739 259.683 391.942 253.594 387.76 246.319C383.772 246.066 379.823 245.735 375.816 245.813H375.796C374.182 250.773 373.19 255.909 372.878 261.122C375.154 265.499 377.333 269.935 379.181 274.526C379.259 274.526 379.317 274.467 379.414 274.506C382.216 274.701 382.566 273.125 382.449 270.616C382.332 268.106 381.866 265.674 381.749 263.223C381.554 259.488 383.383 254.839 388.032 256.687C392.526 258.477 394.588 265.363 394.296 269.759H394.277C394.296 272.172 393.343 274.467 391.65 276.16C389.121 277.774 386.184 278.591 383.208 278.494C384.92 280.537 387.001 282.657 389.219 282.424H389.199C392.059 281.84 394.452 279.895 395.599 277.21L395.599 277.23ZM392.448 238.712C392.837 237.817 393.226 236.942 393.615 236.047H393.635C388.83 234.471 384.355 232.04 380.407 228.888C379.473 231.69 378.714 234.53 377.975 237.389C381.905 237.448 385.795 237.837 389.725 238.031H389.705C390.114 238.051 390.503 238.109 390.873 238.226C391.437 238.245 391.981 238.42 392.468 238.693L392.448 238.712ZM389.413 272.288H389.433C390.269 270.304 390.347 268.086 389.647 266.044C389.199 264.352 385.659 257.368 385.912 262.64H385.931C386.495 266.433 386.573 270.265 386.184 274.059C387.468 274 388.674 273.339 389.433 272.269L389.413 272.288ZM370.641 202.529C370.699 197.276 371.089 192.024 371.166 186.791C362.062 180.313 356.518 169.944 356.207 158.778C353.639 162.066 352.472 166.248 352.978 170.392C354.359 171.851 355.623 173.407 356.752 175.06C359.494 178.99 360.876 181.577 360.35 181.966C359.883 182.336 357.685 180.624 354.631 177.609H354.612C354.709 178.62 354.709 179.651 354.612 180.663C353.289 186.343 349.943 191.342 345.216 194.727C352.667 199.921 361.556 202.645 370.641 202.529ZM370.719 275.849C369.688 273.456 368.56 271.103 367.373 268.787C352.005 276.88 336.851 285.459 321.755 294.135C323.331 295.944 324.809 297.85 326.152 299.834C340.819 291.392 355.565 283.085 370.719 275.849ZM341.792 192.14C346.111 188.541 352.141 182.744 350.371 176.655C349.943 175.255 349.593 173.932 349.243 172.609C348.97 172.356 348.679 172.103 348.406 171.831C347.278 170.82 346.13 169.73 344.963 168.641C344.535 168.271 344.088 167.94 343.64 167.61C343.504 168.602 343.29 169.594 343.018 170.586C341.559 176.013 338.174 180.721 333.486 183.853C335.976 186.869 338.757 189.65 341.792 192.14ZM348.659 165.801C349.379 161.715 351.207 157.903 353.911 154.771C350.702 151.814 348.017 148.332 345.974 144.48C342.998 149.499 343.873 155.821 343.951 161.968V161.949C345.41 162.922 346.772 164.011 348.075 165.178C348.309 165.412 348.464 165.606 348.659 165.801ZM343.698 272.054C343.543 271.859 343.407 271.665 343.27 271.47C338.563 263.436 331.618 257.211 327.144 248.905C323.487 241.085 318.857 233.77 313.332 227.156C303.8 239.664 289.424 253.554 286.253 268.183C283.919 278.96 286.039 288.978 278.783 297.635H278.803C278.803 297.849 278.764 298.063 278.725 298.277C277.714 302.226 276.935 306.253 276.138 310.26C280.204 308.081 284.25 305.883 288.199 303.646C306.719 293.199 325.099 282.384 343.698 272.054ZM343.873 140.163C343.154 138.432 342.473 136.662 341.889 134.853C334.283 124.309 323.74 116.82 318.857 103.455H318.837C313.118 88.36 311.173 72.0968 313.138 56.0677C308.897 55.8148 304.656 55.8343 300.376 55.9899C299.559 90.6945 314.247 123.957 340.431 146.76C341.073 144.329 342.239 142.07 343.873 140.163ZM339.322 159.072C339.341 156.485 339.341 153.878 339.594 151.388C339.419 151.31 339.263 151.232 339.088 151.135C310.745 128.375 295.63 91.9377 296.155 56.1664C292.362 56.3609 288.607 56.6138 284.814 56.8667C283.55 59.8041 282.168 62.7027 280.632 65.5428C288.452 74.0631 290.572 84.3732 294.774 95.1699C300.571 109.993 305.862 124.544 310.959 139.581L310.978 139.562C315.491 154.152 322.183 167.963 330.84 180.531C336.228 177.009 339.4 170.921 339.186 164.481C334.517 161.816 330.198 158.587 326.308 154.891C324.946 153.451 323.837 151.778 323.02 149.969C322.592 148.685 322.553 147.927 322.826 147.752C323.098 147.577 323.72 148.082 324.615 149.036V149.055C325.86 150.222 327.183 151.351 328.545 152.382C332.027 154.813 335.606 157.029 339.322 159.072ZM339.749 126.449C339.185 123.589 338.777 120.73 338.485 117.948C337.396 107.093 331.871 96.8415 331.949 85.8312V85.8117C332.241 77.2521 333.563 68.7512 335.878 60.5034C329.906 58.3246 323.681 56.924 317.359 56.3793C314.927 74.5095 317.923 92.9514 325.938 109.391C329.673 115.733 334.322 121.469 339.749 126.449ZM322.047 182.375C319.285 178.27 316.814 173.991 314.655 169.536C307.029 153.857 302.847 137.633 296.583 121.506L295.241 118.219C292.848 130.902 281.526 136.816 268.784 135.726V135.746C267.714 137.049 266.547 138.275 265.302 139.403L265.341 139.461L265.361 139.481L265.38 139.539L265.458 139.656L266.022 140.551V140.57C266.411 141.212 266.781 141.893 267.092 142.574C267.598 143.702 268.181 144.772 268.862 145.784C269.037 145.978 269.134 146.231 269.31 146.406L269.99 147.107C270.418 147.593 270.866 148.04 271.274 148.488C272.111 149.421 272.986 150.141 273.803 150.919C275.496 152.476 276.974 154.168 278.375 155.491C283.841 160.957 288.101 163.369 287.77 164.05C287.595 164.556 282.557 163.156 276.118 157.981C274.484 156.716 272.947 155.257 271.099 153.779C270.205 153.001 269.154 152.223 268.259 151.367C267.812 150.939 267.364 150.491 266.878 150.083L266.178 149.402H266.197C265.905 149.11 265.653 148.799 265.419 148.468C264.524 147.301 263.746 146.056 263.085 144.753C262.832 144.169 262.521 143.624 262.19 143.119L261.606 142.243L261.49 142.088L261.431 142.029C260.4 142.555 259.33 142.944 258.202 143.196C258.591 143.722 258.922 144.286 259.214 144.869C259.914 146.328 260.42 147.71 260.886 148.741C261.451 149.869 262.093 150.939 262.773 151.989C263.532 152.981 264.252 153.954 265.108 154.907C265.944 155.919 266.703 156.755 267.559 157.845C268.318 158.856 269.037 159.829 269.699 160.763C270.983 162.669 272.13 164.42 273.259 165.918L273.239 165.937C274.912 168.33 276.838 170.528 278.997 172.474C280.592 173.796 281.779 174.38 281.584 174.711C281.468 174.964 280.242 175.003 278.161 174.069V174.088C275.301 172.571 272.753 170.509 270.691 168.019C269.348 166.56 268.006 164.867 266.567 163.136C265.866 162.26 265.108 161.366 264.349 160.471C263.532 159.595 262.695 158.701 261.859 157.786C261.022 156.853 260.069 155.802 259.135 154.674C258.28 153.468 257.501 152.203 256.801 150.9C256.159 149.519 255.673 148.351 255.167 147.301V147.32C255.984 154.11 258.124 160.685 261.45 166.676C264.952 172.259 268.57 177.784 271.838 183.542C282.946 183.542 291.739 183.561 301.582 183.289H301.563C308.41 183.464 315.238 183.172 322.047 182.375ZM318.876 304.056C317.67 301.974 315.88 300.301 314.48 298.337C306.31 303.025 298.159 307.694 290.008 312.343C266.217 325.746 240.266 337.846 217.504 353.194V353.175C219.235 354.537 220.811 356.093 222.172 357.844C246.586 343.993 271.331 330.668 295.901 317.07C303.586 312.849 311.211 308.472 318.876 304.036L318.876 304.056ZM289.269 105.438C289.366 105.224 289.483 105.03 289.638 104.855C287.926 100.75 286.331 96.6652 284.969 92.4825C283.861 88.8448 282.557 85.2655 281.079 81.7641C280.106 83.5148 278.628 84.9349 276.838 85.8492C278.122 90.2262 276.41 94.9337 272.636 97.4626C274.231 104.971 273.959 112.772 271.819 120.145C279.659 118.336 286.156 112.87 289.269 105.438ZM278.025 78.4762C278.161 78.0093 278.492 77.6008 278.92 77.3479C278.064 75.9278 277.11 74.5467 276.079 73.2239C274.834 75.1303 273.551 77.0173 272.189 78.8652C273.317 79.7601 274.309 80.8105 275.107 82.0166C276.488 81.2385 277.519 79.974 278.025 78.4567L278.025 78.4762ZM290.961 118.161C286.487 123.199 280.554 126.72 273.998 128.276C273.279 129.404 272.52 130.572 271.703 131.758C280.963 131.797 288.899 127.343 290.961 118.161ZM275.263 222.875C275.516 221.98 276.041 221.202 276.78 220.658C274.368 208.714 269.991 197.256 263.844 186.751C266.742 193.579 268.084 200.952 267.734 208.363C266.742 215.288 263.494 221.689 258.513 226.61C254.311 231.512 252.113 238.535 248.242 243.69C259.408 242.173 272.345 232.972 275.263 222.875ZM279.484 47.4254C278.375 44.0794 276.022 41.3169 272.89 39.7024C274.718 45.3437 271.859 50.9462 268.221 57.4436C262.618 68.0844 255.713 77.9861 247.678 86.9347C234.178 101.097 217.876 109.772 199.921 102.4V102.381C198.618 105.493 197.665 108.722 197.1 112.049C203.403 119.869 215.931 120.783 225.288 120.861C235.501 111.991 243.418 98.8981 252.737 88.8993C264.467 77.1106 273.59 62.9879 279.484 47.4254ZM271.333 93.1014C272.695 91.5063 273.298 89.3859 272.987 87.3042C272.676 85.2225 271.489 83.3941 269.719 82.2465C268.843 83.3359 267.987 84.4058 267.073 85.4758C268.863 87.7907 270.302 90.3588 271.333 93.1014ZM244.682 83.9587C251.043 76.7805 276.858 47.5619 265.925 36.5516C265.867 36.4738 265.828 36.4154 265.789 36.3376C265.458 36.182 265.166 35.9485 264.914 35.6956C258.669 29.8013 250.81 25.891 242.328 24.4518C238.029 24.2378 233.808 25.5606 230.404 28.1868C224.315 33.2445 219.335 39.5083 215.755 46.5894C209.219 58.2416 200.329 71.8783 209.472 84.9702C213.032 90.0862 217 94.8137 220.385 100.007C229.937 97.2645 238.419 91.6623 244.682 83.9587ZM264.952 126.892C270.477 114.772 272.014 99.4047 264.33 88.7051C263.396 89.7361 262.501 90.7866 261.587 91.7593C252.133 101.875 244.138 114.597 234.119 124.226C239.78 128.895 247.698 135.84 254.857 135.062V135.042C259.292 134.031 263.027 131.016 264.952 126.892ZM263.318 382.894C263.241 380.229 263.066 377.564 262.754 374.898C261.256 365.094 261.004 355.154 262.015 345.291C248.865 352.488 235.773 359.744 222.778 367.195C222.233 367.506 221.63 367.7 221.008 367.778C219.821 383.399 219.491 399.059 220.016 414.719C230.929 415.886 241.9 416.45 252.892 416.664H252.911C250.83 415.283 248.962 413.629 247.348 411.723C244.663 408.494 242.192 405.09 239.994 401.51C239.994 401.529 239.975 401.529 239.975 401.568C239.488 401.938 238.924 402.152 238.321 402.191C237.524 402.191 236.745 401.977 236.065 401.529C235.578 401.257 235.131 400.926 234.703 400.557C233.438 399.448 232.31 398.184 231.337 396.822C229.742 394.624 229.12 393.281 229.373 393.087C229.626 392.892 230.773 393.807 232.738 395.518V395.538C233.847 396.569 235.053 397.522 236.317 398.378C236.784 398.709 237.329 398.962 237.874 399.098C237.893 399.098 237.893 399.098 237.893 399.078H237.913C237.971 398.689 238.01 398.3 238.029 397.911L238.088 393.359L241.064 396.9C244.06 400.498 246.822 404.759 250.635 408.766H250.616C252.347 410.77 254.467 412.384 256.88 413.474C257.794 413.824 258.825 413.863 259.759 413.59L260.323 413.337C260.556 413.26 260.323 413.26 260.342 413.221C260.362 413.201 260.401 413.104 260.42 413.085C260.498 413.007 260.498 412.773 260.595 412.598C260.595 412.345 260.653 412.112 260.653 411.84C260.576 410.439 260.264 409.038 259.739 407.716C259.214 406.276 258.611 404.856 257.911 403.494C256.568 400.712 255.051 398.086 253.553 395.577C250.577 390.616 247.639 386.201 245.227 382.504C240.286 375.112 237.349 370.366 237.971 369.938C238.438 369.607 242.251 373.556 247.931 380.52C250.732 384.022 253.981 388.263 257.269 393.262C258.903 395.791 260.556 398.476 262.073 401.432C262.21 401.705 262.346 402.016 262.501 402.308C262.696 400.401 262.832 398.456 262.988 396.55C262.91 396.122 262.793 395.655 262.715 395.227C262.21 393.768 261.704 392.251 261.159 390.675H261.12C260.634 388.944 260.031 387.251 259.331 385.617C258.63 383.886 257.93 382.174 257.288 380.54C256.646 379.159 255.868 377.836 254.954 376.65C253.144 374.335 251.471 371.923 249.915 369.433C248.787 367.624 248.067 365.581 247.853 363.461C247.776 362.877 247.834 362.274 248.009 361.71C248.145 361.34 248.281 361.146 248.456 361.126C248.631 361.087 248.787 361.301 248.962 361.652C249.137 362.021 249.351 362.527 249.643 363.052V363.072C250.46 364.667 251.491 366.165 252.678 367.526C254.176 369.355 256.179 371.378 258.377 373.946H258.358C259.642 375.386 260.712 376.981 261.529 378.712C262.112 380.074 262.696 381.474 263.318 382.875V382.894ZM252.502 227.154C261.995 216.124 265.439 208.168 261.393 193.909C256.335 176.07 248.048 159.788 245.285 141.27C240.091 138.955 235.248 135.94 230.871 132.302C238.185 148.253 247.153 161.929 248.378 180.662C249.001 190.389 251.296 200.252 250.791 209.959C250.479 216.378 247.309 222.701 246.083 229.256C246.278 232.096 246.472 234.898 246.647 237.738C248.281 234.042 250.246 230.52 252.502 227.154ZM260.575 439.935C260.381 440.051 260.206 440.188 260.011 440.304C252.717 444.584 238.068 443.183 230.326 444.292H230.346C217.934 446.257 205.348 446.782 192.82 445.848C189.805 445.926 186.829 445.343 184.047 444.175C183.638 446.14 184.027 448.183 185.136 449.856C206.574 451.276 227.466 455.4 248.397 448.085C248.475 448.066 248.572 448.066 248.65 448.027V448.046C249.253 447.735 249.915 447.58 250.576 447.618C254.642 447.618 259.758 449.136 260.147 444C260.264 442.697 260.419 441.316 260.595 439.934L260.575 439.935ZM234.489 439.487C244.896 438.009 256.879 439.468 259.914 428.944C251.277 433.962 240.636 434.001 231.96 429.08C231.318 430.364 230.443 431.531 229.392 432.503C222.856 438.767 216.962 438.34 210.172 434.235V434.254C209.628 434.488 209.063 434.624 208.48 434.643C205.523 434.702 202.547 434.371 199.668 433.651C197.275 432.698 194.668 432.309 192.101 432.484C188.949 433.924 186.518 436.569 185.331 439.799C190.097 443.748 204.122 442.736 208.694 442.444C217.351 441.88 225.91 440.693 234.508 439.487L234.489 439.487ZM232.057 424.392C239.935 429.567 250.071 429.839 258.221 425.131C249.448 425.053 240.694 424.761 231.941 424.178C231.979 424.256 232.038 424.314 232.057 424.392ZM245.499 216.183C246.53 212.954 246.978 209.569 246.783 206.165C245.966 197.664 244.954 189.182 244.176 180.662C242.289 160.975 232.31 146.638 224.995 129.268C221.144 129.229 217.292 128.957 213.479 128.432C213.401 128.529 213.304 128.626 213.226 128.743C218.848 146.834 233.885 160.587 238.729 178.622C238.924 178.953 239.06 179.303 239.118 179.653C239.254 179.848 239.391 180.043 239.488 180.256C243.865 190.275 245.888 201.169 245.421 212.101C245.421 213.463 245.48 214.821 245.499 216.183ZM238.068 246.413C238.204 246.141 238.379 245.907 238.574 245.674C238.243 235.947 236.979 226.26 237.017 216.494V212.934L236.551 212.428H236.531C235.403 211.3 234.391 210.036 233.516 208.693C232.738 207.526 232.232 206.592 231.629 205.581C231.065 204.647 230.364 203.441 229.859 202.799C229.178 201.963 228.536 201.146 227.913 200.329C227.174 199.55 226.474 198.811 225.812 198.091C223.011 195.504 220.482 192.644 218.206 189.591C217.312 188.326 216.592 186.945 216.067 185.486C215.833 184.844 215.619 184.26 215.425 183.696C215.308 183.21 215.23 182.724 215.211 182.218C214.977 180.448 215.036 179.417 215.347 179.319C216.125 179.047 217.039 183.249 220.872 187.567C223.401 190.174 226.066 192.644 228.848 194.959C229.626 195.718 230.443 196.516 231.26 197.313C232.077 198.111 232.777 199.103 233.594 200.037C234.47 201.204 234.917 202.002 235.617 203.071C236.006 203.752 236.395 204.414 236.823 205.056C236.746 203.461 236.629 201.826 236.434 200.231C236.415 200.154 236.376 200.095 236.357 200.017H236.337C235.112 197.197 233.516 194.551 231.629 192.12C228.381 187.84 225.988 185.447 226.416 184.941C226.727 184.513 229.859 186.07 233.983 190.057C234.158 190.194 234.314 190.388 234.489 190.563C233.886 188.482 233.127 186.459 232.213 184.494C232.077 184.163 231.96 183.793 231.882 183.424C223.362 176.226 215.366 168.445 207.935 160.119C206.943 164.593 206.262 169.145 205.932 173.736C205.854 182.101 206.826 190.446 208.811 198.558C211.301 210.23 201.885 223.75 199.668 234.839C199.395 236.278 199.337 237.757 199.473 239.216C202.703 240.13 205.874 241.258 208.947 242.581C211.67 243.807 214.549 244.682 217.486 245.188C222.369 245.966 225.404 244.41 225.676 245.11C225.812 245.363 225.229 246.005 223.847 246.822C221.824 247.853 219.568 248.398 217.292 248.378C213.965 248.281 210.678 247.678 207.565 246.549C205.231 245.81 202.858 244.954 200.407 244.273C200.737 245.227 201.087 246.238 201.418 247.308L201.846 247.814L202.371 248.436L202.488 248.611L202.508 248.65L202.76 248.864C204.278 250.382 205.795 251.782 207.254 253.105V253.086C209.783 255.42 212.487 257.579 215.308 259.544C217.136 260.848 219.14 261.917 221.26 262.676C222.544 263.163 223.789 263.124 223.789 263.513C223.789 263.688 223.595 263.843 223.167 264.077C222.486 264.388 221.766 264.524 221.027 264.505C218.44 264.408 215.911 263.707 213.635 262.462C210.347 260.77 207.254 258.727 204.394 256.393C204.219 256.256 204.063 256.081 203.888 255.945L204.141 256.879C205.133 261.839 207.468 266.431 210.872 270.166C213.479 273.2 215.249 275.223 214.802 275.749C214.354 276.274 212.02 275.223 208.538 272.578C206.476 270.983 204.667 269.057 203.208 266.878C201.574 264.33 200.368 261.509 199.667 258.552C197.625 265.088 196.399 271.839 196.03 278.667C195.757 283.238 194.901 287.751 193.481 292.109C193.676 291.992 193.87 291.875 194.065 291.739C195.582 291.058 197.138 290.475 198.734 290.008C204.044 288.841 209.452 288.179 214.899 288.043C215.852 287.965 216.747 287.907 217.564 287.868C218.381 287.829 219.082 287.693 219.665 287.673C220.832 287.615 221.552 287.732 221.649 288.043C221.766 288.354 221.222 288.821 220.19 289.444C219.685 289.716 219.062 290.066 218.304 290.397C217.487 290.708 216.553 291.019 215.522 291.331C211.398 292.576 205.639 293.101 199.979 294.56H199.998C196.847 295.338 193.909 296.797 191.38 298.84C190.602 301.252 189.921 303.644 189.357 306.076C190.232 305.629 190.874 305.376 191.691 305.006C192.664 304.598 193.637 304.247 194.648 303.975C197.955 303.1 201.34 302.536 204.764 302.263C210.386 301.777 213.712 301.252 213.965 301.894C214.218 302.536 210.911 304.228 205.347 305.57C202.624 306.271 199.278 306.971 196.068 308.099C195.251 308.372 194.454 308.702 193.675 309.072C192.858 309.5 191.73 310.006 191.147 310.395C190.699 310.647 190.252 310.959 189.824 311.231C190.446 311.348 191.049 311.465 191.672 311.601C192.197 311.659 192.703 311.717 193.228 311.795C195.173 311.99 197.08 312.223 198.85 312.223C202.001 312.379 205.133 312.165 208.226 311.562C213.362 310.609 216.591 308.722 216.961 309.403C217.214 309.85 214.938 312.69 209.141 314.791H209.121C205.814 315.939 202.351 316.561 198.85 316.6H198.675H198.694C198.694 317.32 198.5 318.02 198.13 318.643C196.088 321.385 194.726 324.556 194.142 327.922C200.192 327.416 206.281 327.436 212.331 327.98C213.245 325.023 213.848 321.969 214.14 318.896C214.159 318.798 214.179 318.721 214.198 318.643C213.79 316.97 214.646 315.239 216.221 314.538C227.076 309.15 225.092 285.689 227.212 275.885C229.255 265.536 232.913 255.595 238.068 246.413ZM223.926 430.693V423.515C222.856 423.438 221.786 423.321 220.735 423.204C220.638 423.652 220.463 424.079 220.191 424.469C218.245 427.134 216.028 429.584 213.577 431.822C217.001 433.125 220.852 432.697 223.926 430.693ZM232.368 172.55C226.532 158.7 215.366 146.794 210.055 132.515C208.324 134.675 206.69 136.892 205.153 139.227C210.561 153.603 221.319 162.804 232.368 172.57L232.368 172.55ZM230.462 24.2408C220.191 25.5247 210.989 31.283 205.348 39.9786C194.376 56.6108 184.047 79.1184 199.064 96.5863V96.6057C199.356 96.9364 199.59 97.306 199.765 97.7146C204.764 100.166 210.328 101.197 215.872 100.73C209.025 90.7115 201.068 83.0468 201.204 69.9549C201.321 59.2947 210.289 46.4164 216.047 37.9738V37.9544C219.607 32.2548 224.568 27.5273 230.462 24.2594L230.462 24.2408ZM212.04 346.676C211.476 346.19 211.106 345.528 210.97 344.808C210.464 342.007 210.27 339.167 210.017 336.327C204.628 335.529 199.142 335.627 193.773 336.599C193.268 338.136 191.945 339.264 190.35 339.517C188.618 344.75 186.265 349.75 183.347 354.418C179.281 361.538 180.623 367.044 182.53 373.327C183.989 371.032 186.596 369.728 189.3 369.942C189.689 369.981 190.058 370.039 190.428 370.156C189.922 368.483 189.767 366.713 189.942 364.981C190.564 361.616 193.268 359.029 196.653 358.581C197.743 356.908 199.299 355.624 201.147 354.846C201.536 354.593 201.944 354.36 202.372 354.146C203.403 353.582 204.493 353.173 205.621 352.881C206.302 352.765 206.944 352.687 207.566 352.512C207.352 350.936 208.053 349.36 209.395 348.485C210.29 347.862 211.184 347.298 212.04 346.676ZM207.468 373.969V373.988C209.122 372.588 209.842 370.389 209.375 368.289C208.733 365.04 205.951 359.262 202.916 359.865C202.41 360.255 201.905 360.682 201.438 361.091V361.11C202.449 362.453 203.344 363.873 204.103 365.39C205.64 367.822 206.768 370.506 207.41 373.327C207.449 373.541 207.468 373.755 207.488 373.989L207.468 373.969ZM202.158 375.992C203.481 375.019 201.632 371.44 201.146 370.525C200.524 369.319 197.898 362.997 196.186 363.989C193.073 365.779 196.049 371.906 197.742 375.719C197.761 375.739 197.82 375.778 197.859 375.797C198.15 376.147 198.384 376.498 198.578 376.906C199.843 376.848 201.068 376.556 202.177 375.992H202.158ZM186.556 383.307C189.786 383.735 193.599 379.572 191.459 376.654C188.716 372.86 185.895 376.226 185.234 379.436C185 380.525 184.708 381.926 185.681 382.743L185.7 382.762C185.992 382.976 186.284 383.151 186.576 383.326L186.556 383.307ZM176.11 381.536C175.779 380.33 175.371 379.105 174.943 377.84L174.962 377.86C173.27 379.046 171.713 380.427 170.293 381.925C170.313 381.964 170.352 382.023 170.371 382.062C170.585 382.567 170.838 383.034 171.13 383.501C171.208 383.637 171.247 383.676 171.266 383.715C171.363 383.832 171.48 383.929 171.577 384.026C171.636 384.046 171.947 384.279 172.102 384.396H172.122C173.406 383.365 174.748 382.431 176.149 381.556L176.11 381.536Z" fill="white"/>
<path d="M397.932 356.538C400.791 358.581 402.601 360.039 402.25 360.662C401.978 361.187 399.721 360.837 396.337 359.495C395.461 359.125 394.547 358.717 393.555 358.23C392.582 357.666 391.512 356.966 390.423 356.207H390.403C389.353 355.468 388.4 354.631 387.544 353.678L386.863 352.978L386.493 352.647L386.318 352.453L386.007 352.122C385.579 351.558 385.17 350.955 384.723 350.391C381.572 345.625 379.588 341.384 377.564 338.739C375.911 336.249 373.752 334.79 374.179 334.187C374.491 333.759 376.728 333.72 380.016 336.424H380.035C383.381 339.77 386.279 343.563 388.633 347.667C389.003 348.173 389.373 348.679 389.703 349.185C390.131 349.613 390.52 350.06 390.871 350.449C391.629 351.383 392.466 352.239 393.38 352.998C394.158 353.679 394.936 354.32 395.617 354.904C396.454 355.468 397.231 356.032 397.932 356.538Z" fill="white"/>
</svg>
