<svg width="188" height="165" viewBox="0 0 188 165" fill="none" xmlns="http://www.w3.org/2000/svg">
<path d="M151.386 145.501L127.412 142.097C127.458 140.796 127.157 139.485 126.502 138.32C125.546 136.618 123.963 135.38 122.079 134.87L96.7307 127.935C95.5657 127.607 94.4917 126.979 93.6362 126.115L82.942 115.256C80.8213 113.108 78.1182 111.716 75.1328 111.224L66.1404 109.759L3.53095 86.4402C2.48427 86.0397 1.31927 86.5767 0.918785 87.6325C0.518304 88.6792 1.05531 89.8442 2.11109 90.2447L64.8114 113.591C64.9752 113.664 65.139 113.71 65.3029 113.728L74.5045 115.239C76.6252 115.585 78.5548 116.586 80.0746 118.124L90.7689 128.982C92.1159 130.357 93.7997 131.339 95.6656 131.867L121.014 138.812C121.851 139.049 122.579 139.604 122.998 140.35C123.416 141.096 123.507 141.961 123.28 142.799C122.879 144.309 121.35 145.338 119.739 145.129L119.457 147.131L119.111 144.983L90.8696 141.024C89.7956 140.887 88.7489 141.634 88.5851 142.744C88.4212 143.836 89.1949 144.865 90.3053 145.028L118.174 148.897C118.502 148.988 118.802 149.061 119.176 149.133C119.503 149.179 119.849 149.206 120.177 149.206C122.598 149.206 124.837 147.996 126.166 146.057L150.931 149.552C152.305 149.67 153.261 150.79 153.261 152.282C153.261 153.584 152.679 154.895 151.696 155.732C151.022 156.342 150.185 156.615 149.156 156.569L106.916 159.928C102.347 160.274 97.8507 160.019 93.591 159.109C74.8327 155.122 59.5963 147.204 48.2935 135.555C48.0569 135.3 47.7838 135.091 47.4562 134.945L3.58692 118.589C2.54023 118.189 1.37523 118.726 0.974752 119.782C0.574271 120.828 1.11127 121.993 2.16706 122.394L45.6006 138.586C57.4598 150.7 73.3229 158.946 92.7551 163.079C96.0863 163.779 99.5359 164.153 103.058 164.153C104.46 164.153 105.852 164.107 107.254 163.989L149.166 160.63C150.941 160.794 152.87 160.121 154.381 158.81C156.22 157.199 157.339 154.778 157.339 152.311C157.312 148.698 154.718 145.785 151.387 145.503L151.386 145.501Z" fill="white"/>
<path d="M131.562 30.8952C131.89 30.8224 132.19 30.7313 132.472 30.6403C132.772 30.5493 133.055 30.4765 133.264 30.2399C133.355 30.1488 133.428 30.0032 133.501 29.894C133.592 29.7575 133.664 29.6391 133.737 29.4935C133.874 29.2387 133.974 28.9838 134.083 28.7017C134.174 28.465 134.32 28.283 134.547 28.2102C134.802 28.1829 135.057 28.3467 135.175 28.5561C135.312 28.7927 135.312 29.0475 135.266 29.2751C135.239 29.5299 135.102 29.6938 134.866 29.7848C134.775 29.8576 134.684 29.9213 134.629 30.0214C134.602 30.1579 134.556 30.258 134.493 30.3491C134.402 30.5857 134.147 30.6767 133.91 30.5857C133.819 30.7495 133.837 30.9862 134.047 31.0499C134.138 31.1227 134.283 31.0772 134.392 31.0772C134.484 31.0772 134.629 31.15 134.647 31.241C134.738 31.423 134.62 31.6597 134.465 31.7962C134.374 31.869 134.229 31.8872 134.119 31.9327C134.028 31.96 133.937 32.0237 133.883 32.1148C133.855 32.1876 133.81 32.2786 133.91 32.2968C134.047 32.3241 134.165 32.224 134.311 32.1603C134.493 32.0693 134.711 31.9054 134.939 31.7598C135.193 31.6233 135.448 31.596 135.758 31.5778C136.249 31.5505 136.804 31.5778 137.269 31.3411C137.36 31.2683 137.451 31.2046 137.523 31.1045C137.614 31.0135 137.687 30.8679 137.76 30.7586C137.833 30.6221 137.897 30.522 137.997 30.431C138.07 30.34 138.161 30.2489 138.179 30.1033C138.252 29.8667 138.042 29.6392 137.878 29.5208C137.642 29.357 137.369 29.266 137.132 29.1204C136.668 28.8655 136.477 28.3285 136.131 27.9827C135.967 27.8188 135.785 27.6823 135.667 27.473C135.576 27.2363 135.667 27.0543 135.74 26.8177C135.767 26.7266 135.812 26.581 135.712 26.5173C135.685 26.4445 135.621 26.4263 135.548 26.4263C135.476 26.399 135.412 26.3353 135.366 26.3353C135.111 26.1987 134.811 26.0986 134.529 26.1714C134.274 26.2443 134.019 26.3535 133.737 26.2625C133.664 26.2352 133.601 26.1896 133.573 26.1714C133.546 26.1441 133.482 26.0986 133.437 26.0986C133.3 26.1714 133.464 26.3535 133.51 26.399C133.837 26.7995 133.855 27.4002 133.51 27.8006C133.346 27.9827 133.091 27.9827 132.836 27.9827C132.745 27.9554 132.599 27.9554 132.49 28.01C132.399 28.0373 132.326 28.1465 132.308 28.2466C132.217 28.4286 132.217 28.8018 131.962 28.8291C131.871 28.8564 131.726 28.8291 131.635 28.8564C131.498 28.8564 131.398 28.8837 131.307 28.9474C131.125 29.1112 131.052 29.3661 131.216 29.5754C131.307 29.6664 131.398 29.7393 131.398 29.8758C131.398 30.0123 131.325 30.1124 131.234 30.2034C131.098 30.3673 130.77 30.4583 130.934 30.7131C130.952 31.0317 131.325 30.9589 131.562 30.8952Z" fill="white"/>
<path d="M125.408 0.903442C91.3415 0.903442 63.6168 28.6258 63.6168 62.695C63.6168 96.7643 91.3391 124.487 125.408 124.487C159.475 124.487 187.2 96.7643 187.2 62.695C187.2 28.6258 159.478 0.903442 125.408 0.903442ZM170.962 49.9709C171.872 50.0619 172.801 50.3714 173.62 50.8083C174.457 51.2998 175.295 51.8823 176.277 52.1098C177.279 52.3646 178.307 52.0188 179.354 52.1826C180.683 52.3646 181.638 53.4841 182.43 54.5126C182.476 54.5581 182.521 54.6309 182.567 54.6946C182.94 57.3068 183.195 59.9644 183.195 62.6858C183.195 94.5416 157.283 120.426 125.455 120.426C115.643 120.426 106.414 117.959 98.3313 113.618C98.2858 113.454 98.2585 113.29 98.1948 113.172C98.0128 112.771 97.7761 112.425 97.5213 112.052C97.0298 111.397 96.5201 110.705 96.3108 109.886C96.2198 109.394 96.2379 108.885 96.3381 108.375C96.4291 107.82 96.5747 107.256 96.6839 106.673C96.7749 106.118 96.9206 105.554 97.0298 104.971C97.1208 104.507 97.2118 104.015 97.3574 103.569C97.494 103.169 97.6123 102.778 97.8671 102.45C98.1675 102.122 98.5406 101.958 98.9411 101.776C99.4326 101.522 99.6146 101.121 99.7603 100.639C99.8968 100.293 100.015 99.8924 100.252 99.5647C101.162 98.2359 102.837 97.6807 103.656 96.2517C104.447 94.8773 104.475 93.2481 105.103 91.8466C105.403 91.1731 105.895 90.5633 106.55 90.2174C106.969 89.9625 107.387 89.7987 107.76 89.4256C108.106 89.0797 108.316 88.5427 108.507 88.0512C108.907 87.0501 109.226 85.9579 109.49 84.8838C109.745 83.8372 109.89 82.7905 110.072 81.7164C110.236 80.7335 110.473 79.7596 110.891 78.8039C111.128 78.3398 111.447 77.8483 111.474 77.3386C111.547 76.9199 111.383 76.4557 110.982 76.2646C110.891 76.1918 110.955 76.0825 111.01 76.0825C110.755 75.7367 110.382 75.4545 110.009 75.1997C109.499 74.872 108.889 74.6445 108.307 74.4079C107.651 74.153 107.005 73.8982 106.377 73.5887C105.003 73.0062 103.628 72.3054 102.299 71.5864C101.225 70.9584 100.179 70.2394 99.5962 69.0926C99.2959 68.5829 99.0865 67.9731 98.6861 67.5271C98.1946 67.0174 97.5211 66.9446 96.8476 66.7353C95.6098 66.3348 94.7269 65.2699 93.6802 64.5418C92.6062 63.8228 91.423 63.3313 90.1579 63.0946C88.9201 62.858 87.6187 62.858 86.3353 63.122C85.143 63.3768 83.8415 63.8683 83.0041 64.7966C82.5399 65.2881 82.3488 65.9161 82.4489 66.5896C82.5217 67.2176 82.7766 67.873 82.5399 68.4555C82.4489 68.7103 82.2851 68.9469 82.0757 69.2018C81.9392 69.3838 81.7299 69.666 81.7481 69.9208C81.7754 70.1756 82.094 70.2667 82.2578 70.4305C82.4216 70.5943 82.4216 70.831 82.2578 71.013C82.0212 71.3133 81.7481 71.5955 81.5115 71.8503C81.2111 72.1507 80.9563 72.4328 80.6923 72.7332C80.2008 73.2429 79.6183 73.7799 79.318 74.4534C79.1815 74.7537 79.136 75.0814 79.227 75.4091C79.318 75.6639 79.5273 75.8277 79.7367 75.9643C80.1553 76.2191 80.6195 76.3101 81.0382 76.5923C81.4387 76.8289 81.6662 77.2203 81.5934 77.7118C81.5024 78.3398 81.0109 78.8313 80.8471 79.432C80.5922 80.4786 81.1929 81.7619 82.2487 82.1352C82.8767 82.3718 83.5502 82.299 84.1145 82.6904C84.3694 82.927 84.606 83.1819 84.788 83.4367C85.0429 83.7644 85.2795 84.092 85.5343 84.3924C86.0258 85.0204 86.5355 85.6302 87.0452 86.2582C87.4639 86.8134 87.8826 87.3322 88.1829 87.9602C88.4378 88.5882 88.5105 89.198 88.3467 89.826C88.2102 90.5724 87.8825 91.2914 87.8552 92.0377C87.8552 92.8568 87.9918 93.6669 88.0373 94.4588C88.1101 95.2506 88.2011 96.0698 88.2739 96.8799C88.3649 97.6718 88.3649 98.4909 88.6015 99.2372C88.7836 99.9107 89.3479 100.402 89.5845 101.103C90.0487 102.314 89.8212 103.642 89.5117 104.898C89.539 104.926 89.5845 104.971 89.5845 104.989C89.6573 105.499 89.8212 106.036 90.0032 106.528C90.3309 107.365 90.7222 108.157 91.1409 108.976C76.9423 98.5545 67.6685 81.7079 67.6685 62.6951C67.6685 61.8122 67.7595 60.9476 67.805 60.0648C68.0143 60.2013 68.2055 60.3469 68.433 60.4106C68.9245 60.5745 69.416 60.6473 69.8984 60.5927C70.4536 60.5198 70.9724 60.3378 71.5094 60.265C71.9735 60.1922 72.3922 60.2377 72.7927 60.5017C73.1203 60.6837 73.3479 60.9658 73.5845 61.248C74.0032 61.7577 74.4219 62.4585 75.15 62.6223C75.5687 62.7133 76.0328 62.6223 76.4515 62.7133C76.6335 62.7406 76.852 62.8043 77.0067 62.9682C77.1887 63.132 77.307 63.3686 77.4072 63.5962C77.8714 64.4153 78.7087 64.9432 79.5278 65.3892C79.7099 65.4802 79.9465 65.6895 80.1832 65.5712C80.3652 65.4802 80.4835 65.2253 80.529 64.9887C80.6018 64.57 80.3925 64.1514 80.0648 63.851C79.5733 63.3868 78.6905 63.1047 78.6177 62.3128C78.5904 61.8214 78.8725 61.3572 78.8725 60.8657C78.8452 60.4015 78.6359 60.0283 78.3173 59.728C77.571 58.9817 76.4333 59.0545 75.4959 59.4276C75.4686 59.4276 75.4049 59.4276 75.3594 59.3548C75.1956 59.1728 75.2866 58.8907 75.4322 58.6995C75.5961 58.4629 75.8327 58.299 76.0602 58.117C76.2969 57.935 76.5244 57.6983 76.6882 57.4617C76.9886 57.043 77.2707 56.4787 77.1069 55.9509C77.0796 55.7142 76.8703 55.5322 76.6154 55.4867C76.3151 55.4594 76.0602 55.5777 75.8236 55.7415C75.5232 55.9054 75.3139 56.0874 75.0318 56.2512C74.7769 56.4332 74.4766 56.5971 74.2126 56.7427C73.6574 56.9793 73.0749 57.1432 72.4378 57.0704C71.8826 56.9976 71.3638 56.8155 70.9725 56.4151C70.1533 55.5777 70.2534 54.2216 70.3171 53.1568C70.39 52.6016 70.4537 52.0373 70.6448 51.5276C70.8268 51.0179 71.2 50.5719 71.6915 50.2898C71.9463 50.126 72.274 50.0349 72.5743 49.9439C72.902 49.8074 73.2478 49.7073 73.5755 49.5981C74.249 49.3614 74.9772 49.1339 75.6689 48.879C76.3242 48.6424 77.0159 48.3875 77.7167 48.4149C78.3447 48.4149 78.9546 48.7152 79.5097 48.9701C80.4199 49.3705 81.4393 49.8802 81.9308 50.8359C82.0219 51.0725 82.0947 51.3001 82.1675 51.5094C82.1948 51.6732 82.3313 52.0009 82.5133 51.837C82.6772 51.7005 82.6772 51.3728 82.6772 51.1817V50.3626C82.6772 49.2886 82.8137 48.1509 83.5873 47.3317C83.7512 47.0769 83.9332 46.8402 84.1425 46.6127C84.5612 46.1485 85.0527 45.7298 85.6079 45.4477C85.8627 45.2839 86.1631 45.1473 86.4452 45.029C86.7456 44.938 87.0277 44.847 87.3554 44.7742C87.6557 44.6832 87.9834 44.5375 88.1927 44.2827C88.3747 44.046 88.4931 43.7275 88.5386 43.4453C88.7206 42.7263 88.8662 41.9982 89.1211 41.352C89.3759 40.7695 89.7036 40.2143 90.1678 39.7865C90.4044 39.6044 90.6593 39.4406 90.9141 39.3223C91.2599 39.1858 91.5876 39.1585 91.9608 39.1403C92.2884 39.113 92.6343 39.0674 92.9437 38.9036C93.2441 38.7671 93.4352 38.5578 93.5262 38.2301C93.5991 37.9025 93.6173 37.5748 93.8539 37.32C94.0177 37.0833 94.2726 36.9013 94.5274 36.7648C95.1827 36.4644 95.9017 36.5099 96.6208 36.3461C97.3398 36.1641 97.9951 35.8364 98.6504 35.5087C98.7414 35.4359 98.8142 35.4177 98.9053 35.3449C98.9781 35.3176 98.9963 35.3176 98.9781 35.2084C98.9053 35.0446 98.6777 35.1174 98.5594 35.1174C98.2318 35.1174 97.9769 34.9353 97.8131 34.6987C97.4854 34.2345 97.4672 33.652 97.6765 33.1605C97.8586 32.6508 98.3045 32.2504 98.8415 32.1138C99.3967 31.9773 99.9792 32.1138 100.453 32.4597C100.707 32.6235 100.917 32.8784 101.081 33.1332C101.244 33.4336 101.381 33.7157 101.59 33.9706C101.772 34.2254 102.054 34.4348 102.337 34.4803C102.637 34.5531 102.892 34.4074 103.056 34.1799C103.238 33.9979 103.31 33.6884 103.383 33.4336C103.456 33.1332 103.52 32.8056 103.474 32.4779C103.447 32.1775 103.238 31.9682 103.056 31.7316C102.892 31.5678 102.71 31.3311 102.637 31.1036C102.61 30.8032 102.773 30.6121 102.965 30.4483C103.056 30.3572 103.147 30.2662 103.219 30.1479C103.31 30.0114 103.31 29.8475 103.31 29.6837C103.238 29.2832 103.147 28.8919 103.074 28.5187C103.001 28.1182 102.937 27.7269 102.837 27.3537C102.837 27.2809 102.864 27.2627 102.928 27.2627C102.928 26.7985 102.955 26.3526 102.955 25.8884C102.955 25.3969 102.955 24.9054 102.883 24.423C102.883 24.0954 102.792 23.704 102.482 23.5402C102.082 23.2853 101.645 23.5129 101.272 23.704C100.871 23.886 100.48 24.1227 100.152 24.3775C99.9701 24.514 99.8063 24.6779 99.6606 24.7962C99.4968 24.96 99.3603 25.1238 99.1965 25.2604C99.0326 25.3969 98.8506 25.4242 98.6868 25.2604C98.5503 25.1693 98.4501 24.96 98.3864 24.7962C98.0861 24.1227 98.2499 23.2307 97.7129 22.63C97.4763 22.3934 97.1577 22.2113 96.8028 22.1658C96.4569 22.093 96.0837 22.1931 95.7561 22.4207C95.4557 22.6027 95.2009 22.9304 94.9643 23.258C94.7276 23.6039 94.5456 23.977 94.3089 24.332C93.8448 25.1238 93.326 25.8975 92.7708 26.6165C92.4704 26.9624 92.1883 27.29 91.8606 27.5995C91.5603 27.8999 91.2326 28.1547 90.8594 28.273C90.459 28.4368 90.0403 28.455 89.6216 28.3458C89.203 28.2093 88.8025 27.9454 88.4111 27.7633C88.0107 27.5085 87.5738 27.2991 87.1278 27.108C86.7091 26.9442 86.3087 26.7804 85.89 26.6165C85.5441 26.4527 85.171 26.2889 84.907 25.9885C84.6067 25.6609 84.4883 25.2422 84.4155 24.8508C84.3882 24.4321 84.3427 23.968 84.552 23.613C84.7159 23.2671 85.0162 23.0305 85.3712 22.8667C85.7171 22.7029 86.0902 22.6118 86.4452 22.448C86.8457 22.2842 87.1915 22.0475 87.5829 21.8655C88.3019 21.465 89.03 21.0464 89.7764 20.7278C90.1768 20.564 90.5227 20.4274 90.9414 20.3273C91.1052 20.3 91.2872 20.3 91.4965 20.2545C91.6331 20.2272 91.8242 20.1635 91.9152 20.0725C92.0517 19.9087 91.9425 19.7448 91.8424 19.581C91.7514 19.4172 91.6604 19.2351 91.6604 19.0258C91.6877 18.5616 91.9607 18.1429 92.1701 17.7425C92.4067 17.2783 92.6343 16.8323 92.8436 16.3955C92.9346 16.1588 93.0256 15.9313 93.1712 15.7675C93.3077 15.6036 93.4716 15.5126 93.6627 15.6036C93.8265 15.6764 93.9176 15.8403 93.9904 16.0041C94.0177 16.1406 94.0177 16.2407 94.0632 16.3318C94.0905 16.4228 94.136 16.5138 94.1542 16.6594C94.227 16.8233 94.2452 17.0053 94.1815 17.1691C94.1542 17.3329 94.045 17.4695 93.9448 17.5878C93.7082 17.8426 93.4352 18.0793 93.2258 18.3796C93.0438 18.7255 92.9892 19.1259 93.0438 19.5173C93.0438 19.7539 93.1166 19.936 93.1348 20.1453C93.2076 20.3273 93.2713 20.5458 93.1621 20.7278C93.0893 20.8916 92.9073 20.9827 92.7435 21.0282C92.6069 21.101 92.3248 21.1647 92.343 21.3558C92.4795 21.4286 92.5978 21.4286 92.7435 21.3558C93.0711 21.2648 93.3988 21.0555 93.7446 21.1738C93.9085 21.2466 94.0723 21.3376 94.2361 21.4104C94.3726 21.5014 94.5365 21.5743 94.6548 21.4377C94.7913 21.3012 94.7458 21.0191 94.6821 20.8552C94.6093 20.6186 94.5183 20.4366 94.4272 20.2272C94.2907 19.8814 94.1724 19.4809 94.3362 19.1077C94.5001 18.7072 94.8459 18.6162 95.2191 18.5252C95.4557 18.4524 95.6195 18.3614 95.7743 18.2249C95.9381 18.0883 96.1019 17.9245 96.2658 17.8062C96.5934 17.5058 96.9848 17.2965 97.3853 17.0872C97.8039 16.9234 98.2681 16.7868 98.7596 16.8505C99.1055 16.9234 99.4786 17.1054 99.7153 17.4057C99.8973 17.7334 99.9519 18.1247 99.8518 18.4797C99.5969 19.2989 98.8051 19.6902 98.0588 19.8814C97.6401 19.9724 97.1759 20.0452 96.7573 20.1817C96.5206 20.2545 96.2931 20.3182 96.102 20.4184C96.0109 20.4457 95.8653 20.5094 95.8016 20.5822C95.7743 20.6732 95.8926 20.7642 95.9654 20.8188C96.1293 20.9098 96.3659 20.9098 96.5479 20.8916H97.1759C97.5946 20.9644 97.9951 21.1465 98.3864 21.3831C99.1054 21.8746 99.7608 22.6209 100.716 22.6664C101.117 22.6937 101.508 22.5754 101.718 22.2478C101.9 21.9929 101.972 21.5924 101.79 21.3376C101.763 21.2648 101.79 21.1738 101.881 21.1738C102.182 21.1738 102.555 21.1738 102.719 20.8734C102.855 20.5731 102.746 20.2181 102.719 19.8904C102.691 19.6356 102.719 19.3808 102.883 19.1714C103.065 18.9166 103.392 18.9166 103.674 19.0349C103.975 19.1259 104.184 19.3626 104.494 19.4536C104.657 19.4809 104.794 19.4809 104.912 19.3808C105.003 19.308 105.049 19.1441 105.049 19.0349C105.076 18.8711 105.049 18.7345 105.021 18.5707C105.021 18.4069 104.994 18.2249 104.93 18.061C104.839 17.7607 104.676 17.4785 104.375 17.3147C104.239 17.2237 104.12 17.1782 103.957 17.1782C103.793 17.1782 103.611 17.2055 103.447 17.1782C103.192 17.1054 102.937 16.8778 102.983 16.5957V16.5684C102.983 16.5411 102.983 16.4956 103.01 16.4774C103.147 16.3864 103.147 16.2407 103.101 16.1315C103.028 15.7856 102.701 15.6218 102.428 15.4125C102.1 15.2305 101.8 14.9938 101.681 14.6207C101.654 14.4841 101.608 14.293 101.517 14.202C101.445 14.1292 101.335 14.111 101.263 14.111H100.935C100.516 14.111 100.052 14.1838 99.6334 14.202C98.796 14.3385 97.9314 14.4568 97.0941 14.3658C96.6755 14.3385 96.2568 14.1838 95.8563 14.2748C95.6925 14.3476 95.5287 14.4568 95.3466 14.4568C95.1646 14.4295 95.0463 14.293 95.0008 14.1292C94.928 13.9927 94.8369 13.8926 94.7004 13.8288H94.6549C94.9553 13.6468 95.2647 13.4557 95.5378 13.2918C95.7471 13.3373 95.9837 13.3191 96.2386 13.3646C96.3751 13.3646 96.4934 13.3646 96.5844 13.4375C96.721 13.4648 96.7665 13.5285 96.8848 13.574C97.1214 13.7105 97.349 13.7378 97.6038 13.7105C98.1135 13.7105 98.6505 13.6832 99.2148 13.6377C99.4697 13.6377 99.7245 13.6377 100.007 13.5649C100.243 13.4921 100.471 13.4011 100.68 13.31C100.753 13.31 100.935 13.2372 100.935 13.1735C100.962 13.037 100.771 13.037 100.698 13.037C100.443 13.037 100.189 13.1098 99.952 13.128C99.6972 13.128 99.4423 13.128 99.1602 13.1007C98.9053 13.0734 98.6687 13.0097 98.4412 12.9642C98.1863 12.9369 97.9497 12.8732 97.7222 12.8914C97.4855 12.8914 97.258 13.0279 97.0031 13.0279C96.9121 13.0279 96.8211 13.0006 96.7028 12.9551C96.6118 12.8823 96.539 12.7913 96.4934 12.7002C96.7301 12.5637 96.9576 12.3999 97.1943 12.2816C97.3126 12.3089 97.4036 12.3089 97.5219 12.3089C97.6857 12.3362 97.8496 12.3362 98.0134 12.3362C98.5686 12.3635 99.0874 12.409 99.6426 12.4272C99.8974 12.4545 100.198 12.4545 100.462 12.5C100.717 12.5273 100.971 12.591 101.254 12.6365C101.49 12.6638 101.718 12.7093 101.927 12.6638C102.182 12.6365 102.391 12.5728 102.582 12.409C102.764 12.2724 102.928 12.1541 103.165 12.0631C103.238 12.0358 103.347 11.9903 103.465 11.9721C103.465 11.9448 103.465 11.8993 103.538 11.8993H103.611L103.702 11.8083C103.729 11.7354 103.838 11.7354 103.866 11.8083C104.212 11.6444 104.521 11.3441 104.821 11.0892C104.985 10.9527 105.149 10.8526 105.331 10.7889C105.586 10.6524 105.841 10.6524 106.123 10.6979C106.423 10.7252 106.705 10.7707 106.96 10.8617C107.051 10.889 107.142 10.9527 107.197 11.0983C107.197 11.1893 107.197 11.2804 107.124 11.3532C106.96 11.5898 106.705 11.5352 106.469 11.5352C106.332 11.5079 105.977 11.5352 106.068 11.7718C106.159 12.0085 106.414 12.0722 106.623 12.1723C106.924 12.2633 107.179 12.409 107.443 12.5C107.998 12.7548 108.517 13.0097 109.072 13.2918C109.627 13.5467 110.146 13.8015 110.701 14.0836C110.938 14.1746 111.192 14.2657 111.374 14.4295C111.557 14.5933 111.611 14.8482 111.538 15.0848C111.356 15.5763 110.865 15.9039 110.583 16.3226C110.346 16.7413 110.282 17.2328 110.237 17.6969C110.31 17.6969 110.373 17.788 110.328 17.8608C110.146 18.2613 109.909 18.6526 109.7 19.0258C109.463 19.4444 109.236 19.8449 109.044 20.2363C108.953 20.4183 108.79 20.6368 108.79 20.8643C108.762 21.0463 108.926 21.1919 109.044 21.283C109.345 21.5196 109.536 21.7471 109.672 22.0748C109.809 22.4024 109.855 22.7301 109.973 23.0578C110.109 23.3854 110.273 23.7131 110.528 23.9406C110.828 24.1773 111.156 24.241 111.484 24.0316C111.648 23.9588 111.784 23.8678 111.975 23.8496C112.112 23.7768 112.276 23.7768 112.394 23.8223C112.722 23.8496 113.022 23.9588 113.304 24.0043C113.604 24.0954 113.887 24.1682 114.187 24.0316C114.487 23.9406 114.606 23.6312 114.697 23.3581C114.769 23.0578 114.788 22.7301 114.879 22.448C115.015 22.1203 115.179 21.8655 115.434 21.6288C116.016 21.1191 116.808 20.9553 117.554 20.7915C118.374 20.6276 119.165 20.391 119.884 20.0725C120.603 19.7266 121.286 19.2806 121.914 18.7891C122.469 18.325 123.034 17.8335 123.707 17.5513C124.007 17.3875 124.335 17.2965 124.69 17.251C125.091 17.1782 125.509 17.2783 125.901 17.1144C126.483 16.8141 126.783 16.1315 126.902 15.549C127.084 14.8937 127.157 14.1473 127.557 13.5466C127.739 13.2462 128.021 13.0369 128.349 12.8276C128.649 12.6456 129.004 12.4817 129.259 12.1996C129.723 11.7354 129.887 11.0801 130.242 10.5704C130.424 10.3155 130.643 10.0607 130.916 9.91509C131.261 9.73306 131.635 9.66023 132.035 9.51461C132.335 9.4236 132.663 9.21425 132.781 8.93211C132.809 8.8411 132.872 8.75008 132.854 8.63175C132.827 8.51343 132.763 8.49523 132.672 8.49523C132.49 8.46792 132.253 8.42241 132.017 8.42241C131.134 8.3496 130.242 8.3314 129.359 8.44972C128.476 8.54073 127.639 8.8502 126.747 8.9139C126.074 9.00492 125.345 8.9139 124.79 8.56804C124.554 8.54073 124.326 8.49522 124.135 8.47702C123.298 8.38601 122.433 8.3405 121.623 8.38601C121.159 8.38601 120.74 8.41331 120.321 8.45882C119.976 8.53163 119.575 8.54983 119.202 8.69545C119.038 8.76826 118.874 8.83197 118.71 8.93209C118.547 9.0231 118.456 9.16872 118.292 9.27795C117.991 9.53281 117.664 9.6056 117.291 9.6056C116.945 9.6056 116.572 9.6056 116.244 9.51458C116.08 9.48728 115.916 9.42357 115.752 9.33255C115.589 9.24154 115.498 9.09591 115.334 9.0049C115.17 8.91389 114.933 8.91389 114.751 8.91389C114.569 8.94119 114.351 8.94119 114.169 8.9867C113.768 9.05951 113.377 9.12322 113.004 9.12322C112.676 9.12322 112.348 9.09592 112.021 8.9594C111.884 8.88658 111.766 8.79557 111.62 8.70454C111.484 8.61353 111.384 8.46791 111.293 8.35868C111.156 8.22215 111.038 8.12204 110.828 8.19485C110.665 8.22215 110.528 8.33137 110.41 8.37688C110.109 8.55891 109.9 8.79556 109.591 8.93207C109.19 9.0959 108.799 9.02309 108.398 9.02309C107.98 9.02309 107.515 8.99579 107.097 8.99579C106.678 8.96848 106.259 8.96848 105.814 8.92297C105.468 8.92297 105.113 8.92297 104.785 8.83195C111.147 6.41085 118.019 5.03662 125.218 5.03662C139.08 5.03662 151.831 9.95152 161.797 18.1338C161.706 18.1338 161.615 18.1611 161.514 18.1793C161.005 18.2521 160.468 18.3158 159.949 18.2703C159.458 18.243 158.993 18.0883 158.547 17.9244C158.056 17.6878 157.592 17.5058 157.082 17.5058C156.081 17.4785 155.198 18.0154 154.215 18.1793C153.496 18.3158 152.677 18.2703 152.122 17.7606C151.821 17.4602 151.721 16.9232 151.284 16.8049C150.866 16.7139 150.401 16.9414 150.001 17.1053C149.537 17.2691 149.091 17.3601 148.599 17.3601C148.09 17.3601 147.598 17.3328 147.088 17.3601C146.624 17.3601 146.206 17.4511 145.787 17.6605C145.459 17.8243 145.159 18.061 144.904 18.3158C144.349 18.8255 143.921 19.4535 143.457 20.036C142.993 20.6185 142.474 21.201 141.828 21.647C141.081 22.0657 140.126 22.3933 139.662 23.1852C139.316 23.8132 139.261 24.8143 140.08 25.051C140.544 25.1875 141.036 25.051 141.427 24.8872C141.828 24.7233 142.219 24.5595 142.638 24.4867C142.965 24.4139 143.357 24.4139 143.684 24.6232C143.939 24.787 144.103 25.0874 144.176 25.3695C144.267 25.7154 144.249 26.043 144.249 26.3707C144.221 26.6983 144.221 27.026 144.385 27.3264C144.567 27.7268 145.059 27.7268 145.386 27.5084C145.805 27.2718 146.042 26.8804 146.342 26.5254C146.597 26.2251 146.925 26.0157 147.252 25.7791C147.507 25.6153 147.908 25.3604 147.926 24.9873C147.953 24.5868 147.462 24.3593 147.27 24.0316C147.088 23.6857 147.107 23.2398 147.198 22.8939C147.334 22.4752 147.544 22.1021 147.78 21.7562C148.035 21.4103 148.272 21.0372 148.618 20.755C148.918 20.5184 149.273 20.4092 149.664 20.4092C149.965 20.4365 150.292 20.573 150.483 20.8278C150.62 20.9917 150.62 21.1282 150.556 21.292C150.529 21.4559 150.392 21.5924 150.301 21.6925C150.065 21.8745 149.792 21.9474 149.482 21.8745C149.346 22.3842 149.646 22.9485 149.81 23.4855C149.992 24.0407 150.065 24.5595 149.946 25.1147C149.692 26.0977 148.963 26.8895 148.781 27.8907C148.645 28.3822 148.645 28.8919 148.199 29.265C147.853 29.5199 147.38 29.5926 146.961 29.6109C146.333 29.6382 145.751 29.6382 145.123 29.6382C144.613 29.6382 144.003 29.711 143.512 29.4561C142.629 29.0557 142.793 27.918 142.183 27.3355C141.855 27.4083 141.691 27.7359 141.555 28.009C141.391 28.3548 141.3 28.7553 141.045 29.0102C140.717 29.356 140.253 29.3378 139.835 29.4743C139.489 29.6109 139.207 29.9385 139.043 30.2662C138.697 30.9852 138.551 31.8316 137.996 32.4778C137.414 33.1514 136.485 33.5245 135.621 33.388C135.065 33.3152 134.547 33.1331 134.01 33.1514C133.609 33.1787 133.19 33.3334 133.027 33.7065H133.099C133.982 34.198 135.266 35.0536 134.774 36.2185C134.61 36.619 134.219 37.0103 133.773 36.9375C133.445 36.9375 133.263 36.7009 133.027 36.5371C132.681 36.3004 132.308 36.3733 132.025 36.6281C131.534 37.0286 131.279 37.6293 131.042 38.1936C130.86 38.7488 130.697 39.2676 130.551 39.8683C130.369 40.9149 130.369 42.1528 131.179 42.9627C132.135 43.8729 133.673 43.7091 134.647 42.9627C135.202 42.5441 135.63 41.9798 136.048 41.4519C136.467 40.9422 136.931 40.4689 137.45 40.0502C138.497 39.2311 139.662 38.6759 140.854 38.1207C141.364 37.8841 141.855 37.5382 142.465 37.8204C142.765 37.9569 143.02 38.1662 143.284 38.33C143.539 38.4666 143.776 38.5849 144.003 38.7487C144.822 39.2129 145.678 39.8864 145.614 40.9422C145.587 41.6157 145.123 42.3893 144.376 42.3165C144.14 42.717 144.613 43.1357 145.004 43.1994C145.514 43.3359 145.96 42.8717 146.242 42.4804C146.706 41.8251 147.061 40.9149 147.944 40.7056C148.736 40.5235 149.227 41.1698 149.455 41.8251C149.619 42.2437 149.71 42.7079 149.965 43.0629C150.265 43.4634 150.784 43.882 151.248 43.4634C151.594 43.1357 151.576 42.4622 151.576 41.998C151.576 41.5793 151.548 41.015 151.812 40.6237C152.049 40.2778 152.531 40.205 152.886 40.4416C153.396 40.7693 153.56 41.4428 153.933 41.907C154.443 42.6533 155.398 42.6533 156.217 42.5805C156.891 42.5077 157.592 42.4167 158.265 42.5077C158.848 42.5987 159.476 42.8536 159.731 43.4178C160.076 44.1369 159.758 44.956 159.403 45.584C158.684 46.931 157.355 47.9413 155.881 48.2598C155.043 48.4418 154.16 48.3508 153.341 48.2325C152.267 48.0505 151.221 47.832 150.147 47.7683C149.191 47.6955 148.281 47.6773 147.371 47.4224C146.624 47.1858 145.905 46.8672 145.25 46.4668C143.949 45.6294 142.893 44.4371 142.265 43.0445C141.473 43.3721 140.699 43.6998 139.908 43.9546C138.133 44.5826 136.34 45.0013 134.529 45.2561C133.227 45.42 131.707 45.5565 130.633 46.3756C129.423 47.2585 129.586 48.6601 129.35 49.9617C129.259 50.4532 129.049 50.9629 128.631 51.2632C128.076 51.6819 127.284 51.5636 126.628 51.8912C125.418 52.4464 124.854 53.7753 124.581 54.9857C124.253 56.5967 124.417 58.244 124.672 59.855C124.972 61.648 125.509 63.4226 126.301 65.0702C126.647 65.862 127.093 66.845 127.866 67.2637C128.585 67.6641 129.477 67.5913 130.242 67.5185C132.126 67.3365 134.037 67.2181 135.93 67.382C136.84 67.4548 137.796 67.564 138.706 67.7825C139.425 67.919 140.171 68.0828 140.799 68.5015C141.355 68.9019 141.591 69.4844 141.546 70.1762C141.518 70.9953 141.245 71.8509 141.782 72.5516C142.247 73.1341 142.829 73.5346 142.993 74.3264C143.129 75.0727 142.902 75.7918 142.993 76.5381C143.066 77.421 143.739 77.9124 144.203 78.586C144.604 79.214 144.786 79.9148 144.877 80.6338C145.041 82.263 144.64 83.9468 144.549 85.576C144.294 89.2075 144.877 92.8663 146.251 96.1975C146.579 97.0166 146.925 97.8085 147.371 98.5548C147.553 98.9006 147.835 99.2738 148.208 99.4649C148.672 99.7016 149.164 99.4922 149.582 99.3011C151.093 98.6731 152.586 98.0633 153.897 97.1076C154.552 96.6161 155.18 96.0336 155.671 95.3874C156.181 94.6684 156.554 93.8765 156.955 93.1029C157.61 91.8651 158.584 90.518 160.122 90.4271C159.958 89.6353 159.867 88.8617 159.94 88.0517C160.013 87.2599 160.286 86.5408 160.896 86.0038C161.569 85.3758 162.434 85.0482 162.944 84.229C164.063 82.527 163.617 80.4064 163.453 78.5224C163.362 77.5212 163.362 76.4928 163.617 75.5188C163.799 74.6997 164.172 73.9078 164.6 73.1888C165.51 71.6506 166.766 70.349 167.931 69.0386C168.487 68.3833 169.096 67.7553 169.497 66.9907C169.843 66.3172 170.17 65.3161 169.588 64.6335C168.933 63.8872 167.749 64.233 166.885 64.142C166.138 64.051 165.437 63.7961 164.837 63.3229C163.508 62.4127 162.58 60.9474 161.806 59.573C160.732 57.6161 159.685 55.6774 158.611 53.7207C158.147 52.9016 157.446 50.9447 158.702 50.4624C159.421 50.1621 160.331 50.6991 160.914 51.1177C161.542 51.5819 162.052 52.1644 162.479 52.7924C163.462 54.2396 163.927 55.8869 164.482 57.5251C164.782 58.4808 165.155 59.4091 165.929 60.1373C166.584 60.7926 167.604 61.2568 168.541 60.9746C170.052 60.556 170.571 58.7812 171.736 57.8983C172.391 57.4342 173.137 57.3886 173.902 57.243C174.721 57.1065 175.677 56.7515 175.677 55.7322C175.649 54.822 174.885 54.012 174.211 53.5205C173.42 52.938 172.437 52.5193 171.536 52.1735C171.044 52.0096 170.534 51.8458 169.997 51.7548C169.597 51.6638 169.178 51.6183 168.787 51.4544C168.368 51.2724 167.667 50.7081 168.232 50.2439C168.532 49.9891 169.024 49.9891 169.369 49.9436C169.961 49.8799 170.471 49.9254 170.962 49.9709Z" fill="white"/>
</svg>
