<svg width="49" height="48" viewBox="0 0 49 48" fill="none" xmlns="http://www.w3.org/2000/svg">
<path d="M47.3414 43.22L32.9559 28.8318C35.1684 25.9267 36.4135 22.1915 36.4135 18.1788C36.4135 8.21836 28.3907 0.195557 18.4302 0.195557C8.46979 0.195557 0.444336 8.22101 0.444336 18.1814C0.444336 28.1419 8.46713 36.1647 18.4276 36.1647C22.4403 36.1647 26.0353 34.9196 29.0806 32.7071L43.4688 47.0953C44.0213 47.6477 44.7138 47.9253 45.4064 47.9253C46.099 47.9253 46.7889 47.6477 47.344 47.0953C48.449 45.9877 48.449 44.3275 47.3414 43.22ZM18.4302 30.632C11.5124 30.632 5.97968 25.0993 5.97968 18.1814C5.97968 11.2636 11.5124 5.7309 18.4302 5.7309C25.3481 5.7309 30.8808 11.2636 30.8808 18.1814C30.8808 25.0966 25.3455 30.632 18.4302 30.632Z" fill="#183F7C"/>
</svg>
