<svg width="1576" height="1576" viewBox="0 0 1576 1576" fill="none" xmlns="http://www.w3.org/2000/svg">
<path d="M953.479 1467.29C613.031 1550.77 252.159 1364.85 130.823 1022.81C86.6819 898.331 77.2637 770.65 105.581 641.434C107.182 638.294 108.721 633.554 110.322 630.414C110.322 633.554 110.322 638.294 111.922 641.434C111.922 643.034 113.523 646.174 115.062 647.713C115.062 644.573 116.662 642.973 116.662 639.833C116.662 630.353 116.662 620.934 118.263 609.914C127.744 617.794 121.403 628.814 124.542 636.694C129.283 649.314 129.283 661.935 129.283 676.094C127.682 696.594 146.644 710.753 160.803 712.354C187.582 715.494 203.342 735.994 226.982 743.874C238.002 747.014 244.343 758.034 245.882 762.774C249.021 783.274 264.781 789.553 277.402 797.433C280.541 799.034 283.681 802.173 286.882 797.433C297.902 775.394 299.502 791.154 304.243 800.573C315.263 824.213 305.844 843.112 293.224 862.012C283.743 874.632 272.723 887.253 283.743 904.551C285.344 906.152 283.743 910.831 282.142 912.431C274.262 925.051 279.003 934.47 286.883 945.552C297.903 961.312 307.383 977.072 315.263 994.434C326.283 1016.47 335.764 1036.97 360.942 1047.99C376.702 1054.27 386.183 1068.49 387.722 1087.39C392.462 1140.95 400.342 1194.57 408.222 1246.6C412.963 1278.12 438.141 1300.16 449.223 1328.54C453.964 1341.16 461.844 1352.18 471.262 1363.2C488.623 1383.7 513.802 1385.24 535.903 1396.32H542.183C540.582 1394.72 537.443 1393.18 535.903 1391.58C521.744 1378.96 491.763 1375.82 510.662 1345.9C510.662 1344.3 509.062 1341.16 509.062 1341.16C487.023 1336.42 498.042 1320.66 499.581 1309.64C499.581 1303.36 505.86 1298.62 496.441 1297.02C494.841 1297.02 493.302 1293.88 493.302 1292.28C510.663 1297.02 504.321 1271.78 518.543 1271.78C539.043 1271.78 546.923 1263.9 535.904 1243.4C532.764 1238.66 528.024 1232.38 540.644 1235.52C553.265 1238.66 559.544 1233.92 562.683 1222.9C565.823 1211.88 570.563 1200.86 580.044 1191.38C587.924 1181.9 592.665 1170.88 589.525 1156.72C584.785 1133.08 608.424 1128.34 622.646 1126.8C652.565 1123.66 654.166 1103.16 660.445 1082.66C665.185 1066.9 665.185 1051.14 663.585 1033.78C661.984 1016.42 676.205 1005.4 685.623 992.777C698.244 977.017 706.124 956.517 693.503 942.358C680.883 928.198 665.123 912.439 643.084 910.838C611.564 909.237 587.924 888.799 561.145 877.717C551.664 874.577 551.664 858.817 548.524 849.336C540.644 827.297 526.486 817.816 504.384 814.677C477.604 811.537 466.585 791.037 455.503 772.137C447.623 757.978 436.603 764.257 430.261 765.858C414.501 770.598 401.881 765.858 390.861 759.578C364.082 745.419 341.98 750.098 323.081 778.478C319.941 783.218 315.201 791.098 307.321 783.218C302.58 778.478 296.301 778.478 288.421 781.617C274.262 787.897 261.642 776.877 263.18 761.117C263.18 754.837 264.781 748.497 266.32 742.217C271.06 715.438 269.459 712.299 242.68 715.438C231.66 717.039 230.059 713.837 234.8 704.418C239.54 694.938 244.28 685.519 245.819 674.5C247.42 668.22 256.839 660.34 245.819 655.6C237.939 652.46 223.781 655.6 222.179 666.62C219.04 685.519 208.02 690.26 192.261 687.12C174.899 682.38 176.501 665.082 179.64 652.461C182.78 627.22 184.381 598.902 211.16 583.142C217.44 578.402 223.781 576.863 231.661 578.402C239.541 580.003 245.82 580.003 253.7 572.123C264.72 561.103 277.34 568.983 289.96 572.123C299.441 575.262 294.701 584.743 296.24 591.022C297.84 600.503 297.84 614.662 307.26 613.061C318.279 613.061 319.88 598.901 316.74 587.82C310.461 564.18 318.341 543.679 340.38 532.66C364.02 520.039 375.04 499.538 389.261 479.101C398.742 463.341 416.041 455.461 431.801 444.441C447.561 434.961 460.181 417.662 480.682 409.782C483.822 408.181 486.961 408.181 488.562 406.642C486.961 409.782 486.961 411.383 485.422 414.522C483.822 417.662 482.283 419.263 485.422 420.802C487.023 420.802 490.163 420.802 491.702 419.201C496.442 412.922 504.322 411.321 512.202 409.72C516.943 408.12 524.823 404.98 526.362 401.84C526.362 395.561 518.482 398.701 515.342 395.561C509.063 390.821 509.063 386.081 512.202 381.402C515.342 373.522 526.362 365.642 507.462 365.642C507.462 365.642 505.861 364.041 505.861 362.502C507.462 362.502 509.001 360.901 510.602 360.901C532.64 356.161 556.28 364.041 576.781 348.281C578.382 348.281 579.921 349.882 581.521 349.882C579.921 351.482 579.921 353.021 578.382 354.622C573.641 365.642 553.14 370.382 559.482 383.003C562.622 389.282 581.521 378.262 594.142 387.743C598.882 390.883 606.762 387.743 603.622 383.003C598.882 375.123 614.642 362.502 600.483 362.502C586.323 360.901 591.002 356.223 594.203 349.882C603.684 334.122 606.823 321.501 586.323 313.621C575.303 308.881 581.583 297.861 578.443 289.981C575.303 277.361 573.703 267.942 557.943 280.5C551.663 285.241 534.303 301.001 539.043 272.62C540.644 266.341 529.563 260 524.884 260C512.263 260 496.503 252.12 490.224 267.88C483.945 280.5 468.186 288.381 468.186 305.679C468.186 310.419 460.306 315.16 454.026 318.299C441.406 323.04 431.987 329.319 430.386 343.54C428.786 351.42 422.506 357.7 414.626 354.56C405.146 349.82 413.026 341.94 416.227 337.199C422.506 329.319 422.506 323.04 409.947 324.579C397.327 326.179 389.447 313.559 375.288 311.958C370.548 311.958 370.548 299.338 376.888 294.597C397.389 274.097 424.168 267.818 447.808 252.058C454.088 247.317 455.688 266.217 460.429 256.798C465.169 247.317 495.088 263.077 480.929 236.297C488.809 233.158 495.089 231.557 502.968 228.417C513.988 223.677 517.128 209.518 531.349 206.379C543.969 204.778 558.128 203.239 559.729 214.259C561.331 225.278 545.57 228.418 536.089 233.158C531.349 234.759 526.609 233.158 521.93 234.759C518.79 236.359 514.05 239.499 514.05 241.038C514.05 245.778 520.329 244.178 523.531 244.178C533.011 242.577 540.892 242.577 547.171 252.058C551.911 258.337 569.209 261.538 569.209 258.337C570.81 244.178 607.008 255.197 588.109 229.957V225.216C591.248 222.077 594.388 223.616 597.589 226.817C608.609 239.437 618.09 228.417 622.831 222.077C629.11 212.596 611.811 212.596 611.811 209.456C611.811 188.956 592.911 192.095 583.43 185.816C573.95 179.537 566.069 179.537 556.651 181.076C559.791 182.677 559.791 187.355 556.651 185.816C544.031 177.936 534.612 184.216 523.53 185.816C512.51 188.956 503.029 188.956 493.611 182.677C487.331 177.936 480.991 179.537 474.711 182.677C473.111 182.677 471.572 184.277 471.572 185.816C471.572 185.816 473.172 187.417 474.711 187.417C479.452 187.417 484.192 179.537 488.871 185.816C482.591 190.557 476.251 193.696 468.37 195.297C449.471 192.157 443.129 198.437 444.73 214.196C444.73 217.336 443.13 220.476 441.591 223.677C433.711 217.397 417.951 228.417 417.951 222.076C417.951 212.596 413.21 198.436 425.831 190.556C577.152 100.737 737.894 67.6156 911.254 97.5975C1026.31 118.098 1128.76 163.777 1221.71 234.697C1226.45 237.837 1229.59 242.577 1232.73 245.717C1226.45 248.856 1223.25 242.577 1218.57 240.976C1204.41 234.697 1191.79 223.615 1176.03 220.476C1155.53 217.336 1135.03 214.196 1119.27 231.495C1108.25 242.515 1095.63 250.395 1079.87 253.534C1067.25 256.674 1064.11 263.015 1070.39 275.573C1075.13 288.193 1081.41 296.074 1094.03 289.732C1105.05 283.453 1109.79 288.132 1116.07 296.012C1123.95 305.492 1120.81 308.632 1114.47 314.911C1112.87 316.512 1116.07 322.791 1109.73 321.191C1101.6 323.099 1103.2 319.959 1103.2 315.219C1103.2 310.479 1109.48 302.599 1100.06 302.599C1092.18 302.599 1085.9 310.479 1089.04 318.359C1095.32 330.979 1087.44 334.119 1078.02 334.119C1062.26 335.719 1055.98 354.619 1041.76 356.157C1033.88 373.519 1014.98 364.037 1002.36 371.917C999.223 373.518 992.882 371.917 991.343 376.658C991.343 378.258 996.083 381.398 999.223 382.937C1005.5 386.077 1010.24 390.817 1014.98 395.557C1021.26 403.437 1019.72 411.317 1016.58 419.197C1013.44 428.678 1005.56 423.938 999.222 423.938H996.082C955.081 419.197 942.523 431.818 948.802 472.819C950.403 480.699 950.403 491.718 964.562 490.18C975.582 490.18 980.322 498.06 972.442 507.541C956.682 526.441 939.321 545.34 931.441 570.581C926.701 581.601 909.402 581.601 901.522 595.823C890.502 621.064 862.122 638.362 873.142 673.021C877.882 687.181 873.142 701.402 868.401 717.162C863.661 731.321 863.661 748.682 877.882 761.303C901.522 780.202 909.402 811.722 936.181 827.482C947.201 833.761 955.081 835.362 967.701 833.761C997.62 830.622 1026 821.141 1054.38 819.602C1071.74 818.001 1090.64 836.963 1109.54 844.843C1120.56 849.584 1109.54 870.084 1107.94 882.642C1106.34 893.662 1106.34 901.541 1114.22 909.421C1137.86 934.663 1141 966.183 1147.34 997.703C1150.48 1011.86 1134.72 1021.34 1131.58 1035.5C1126.84 1054.4 1123.7 1071.76 1134.72 1089.06C1145.74 1106.42 1150.48 1125.32 1147.34 1145.82C1145.74 1166.32 1163.1 1177.34 1166.24 1194.7C1172.52 1229.36 1174.12 1227.82 1210.38 1221.48C1251.38 1213.6 1270.28 1180.48 1287.58 1147.42C1292.32 1139.54 1292.32 1131.66 1301.74 1128.52C1311.22 1123.78 1315.9 1111.16 1312.76 1101.74C1308.02 1081.24 1319.04 1067.08 1333.26 1057.6C1363.18 1038.7 1366.38 1010.32 1358.5 983.544C1344.34 931.523 1369.52 895.263 1399.5 860.603C1423.14 833.824 1431.02 803.842 1435.76 772.322C1437.36 764.442 1435.76 758.163 1424.74 764.442C1420 767.582 1415.26 769.182 1408.98 770.721C1401.1 772.322 1391.62 775.462 1386.94 764.442C1380.66 750.283 1394.82 753.422 1399.56 751.822C1427.95 736.062 1457.86 720.302 1462.6 682.503C1464.21 671.483 1462.6 660.464 1454.72 650.983C1449.98 644.704 1446.84 636.824 1449.98 628.944C1484.64 666.743 1479.9 717.225 1481.5 761.303C1498.8 1096.94 1273.42 1388.49 953.479 1467.29ZM346.719 668.21C329.358 657.19 315.199 639.829 291.559 639.829C285.279 641.43 277.399 642.969 271.058 649.31C269.458 650.911 267.918 657.19 272.659 655.589C297.9 646.109 312.059 657.19 327.819 674.489C330.958 677.629 340.439 680.768 348.319 676.089C348.319 672.95 346.719 668.21 346.719 668.21ZM393.999 685.571C387.719 676.091 378.239 674.552 367.219 672.951C353.06 669.811 359.339 690.312 348.32 688.711C353.06 690.312 357.801 693.451 364.08 694.99C373.499 690.312 384.519 688.711 393.999 685.571ZM939.326 230.139C939.326 223.859 933.047 222.259 928.307 222.259H890.508C885.768 222.259 879.488 217.518 876.348 223.859C882.628 226.999 877.949 238.019 887.368 241.221C892.108 242.821 898.388 242.821 904.729 244.36C912.609 242.76 922.091 239.62 929.971 238.081C934.588 234.818 939.326 234.818 939.326 230.139ZM989.746 315.218C999.226 319.958 1014.99 321.497 997.626 337.256C992.885 341.997 997.626 353.016 991.346 359.295C999.226 364.035 1005.51 357.695 1011.85 357.695C1021.33 357.695 1032.35 356.094 1041.77 354.555C1041.77 340.395 1033.89 329.314 1022.87 318.294C1019.73 315.155 1014.99 310.414 1014.99 305.674C1016.59 289.914 1007.11 282.034 994.486 285.173C981.865 289.975 983.405 302.599 989.746 315.218ZM975.525 312.078C967.645 313.678 955.024 316.818 955.024 326.237C955.024 332.517 945.544 341.997 955.024 345.137C961.304 346.737 973.924 343.536 978.664 338.857C984.944 332.578 986.544 323.097 989.684 315.217C985.005 313.617 980.265 312.078 975.525 312.078ZM873.085 201.758C879.364 201.758 885.705 197.018 891.984 193.878C895.124 192.277 898.264 190.738 896.725 187.598C879.363 168.699 903.004 179.718 906.205 174.978C909.345 171.838 918.825 170.238 920.365 167.098C925.105 146.598 940.865 143.458 959.765 143.458C958.226 143.458 961.365 141.858 962.966 141.858C961.365 140.257 959.826 138.718 956.686 138.718C939.325 135.578 922.027 132.438 904.666 129.237C830.606 119.757 756.547 135.517 680.889 130.838C638.35 127.698 598.95 146.598 556.411 151.338C550.131 151.338 543.79 156.079 537.511 157.618C535.849 157.618 531.109 162.358 535.849 162.358C550.008 165.498 535.849 168.638 535.849 168.638C531.109 174.917 523.229 171.777 516.95 173.378C513.81 174.978 509.07 178.118 509.07 179.657C510.67 184.398 515.349 181.258 518.55 181.258C529.57 181.258 540.589 181.258 551.671 179.657C575.311 162.296 602.091 156.017 628.87 146.536C632.01 144.935 635.15 146.536 638.351 144.935C638.351 173.316 658.851 154.416 668.27 157.556C680.89 160.695 699.79 152.815 695.049 178.056C695.049 179.657 696.65 181.196 698.189 182.797C707.669 190.677 704.468 198.557 695.049 201.696C676.15 206.436 679.289 222.197 677.688 236.355C677.688 258.394 696.587 259.995 710.809 266.274C723.429 271.015 728.17 259.995 734.449 253.654C747.069 242.634 754.95 226.875 772.248 225.273C806.907 220.656 838.425 203.298 873.085 201.758ZM1421.55 1007.06C1419.95 1002.32 1418.41 999.182 1418.41 994.442C1415.27 997.582 1412.13 1000.72 1410.53 1003.92C1407.39 1008.66 1405.79 1018.08 1399.51 1021.28C1369.59 1041.78 1377.47 1074.84 1366.39 1103.22C1364.79 1107.96 1364.79 1114.24 1371.13 1115.84C1375.87 1117.44 1380.61 1114.24 1383.75 1109.56C1399.51 1076.44 1413.67 1043.32 1421.55 1007.06ZM1309.69 554.766C1304.95 565.786 1293.93 554.766 1287.65 556.367C1260.87 562.646 1240.37 550.087 1218.33 539.005C1210.45 535.866 1200.97 537.405 1199.43 543.746C1188.41 580.006 1174.19 540.606 1163.17 545.346C1161.57 545.346 1158.43 537.466 1156.89 537.466C1131.65 534.327 1114.35 526.447 1122.23 494.927C1123.83 490.187 1114.35 487.047 1109.61 488.648C1078.09 493.388 1043.43 482.368 1015.05 504.408C1011.91 507.547 1005.57 504.408 1000.89 504.408C996.153 504.408 986.733 506.008 986.733 499.667C986.733 491.787 994.613 493.388 1000.89 491.787C1016.65 490.187 1024.53 480.768 1030.81 466.546C1038.69 446.045 1059.19 436.627 1073.35 427.146C1104.87 403.506 1115.89 431.886 1133.25 444.507C1139.53 449.248 1145.87 453.988 1153.75 457.128C1158.49 460.267 1163.23 465.008 1161.63 469.748C1160.03 477.628 1153.75 476.027 1147.47 476.027C1144.33 477.628 1137.99 472.888 1136.45 479.167C1136.45 480.768 1139.59 483.907 1142.73 485.446C1147.47 487.047 1153.75 494.927 1156.89 488.586C1160.03 480.706 1166.37 475.966 1171.05 468.085C1186.81 444.445 1160.03 447.585 1153.69 438.167C1152.09 435.027 1145.81 435.027 1145.81 431.887C1142.67 424.007 1126.91 417.728 1134.79 409.848C1142.67 401.969 1148.95 417.728 1156.83 420.868C1186.75 431.888 1189.95 463.408 1205.71 483.908C1208.85 488.648 1210.45 498.068 1218.33 494.928C1224.61 491.788 1227.81 483.908 1224.61 476.029C1223.01 468.149 1216.73 460.269 1227.75 457.129C1240.37 453.989 1241.91 465.009 1243.51 472.889C1246.65 493.39 1259.27 501.27 1279.77 501.27C1290.79 501.27 1300.27 510.75 1312.89 506.01C1314.49 506.01 1317.63 507.611 1317.63 510.75C1319.11 529.588 1314.37 542.145 1309.69 554.766ZM1109.49 461.807C1106.35 453.927 1111.09 444.446 1103.21 436.566C1101.61 444.446 1098.47 452.326 1096.93 460.206C1101.67 463.346 1095.33 472.826 1104.81 472.826C1109.49 471.226 1111.09 464.947 1109.49 461.807ZM1295.47 431.827C1289.19 433.428 1284.45 433.428 1279.71 427.087C1274.97 420.807 1270.23 409.726 1262.35 417.606C1252.87 425.486 1248.19 438.107 1251.33 450.727C1254.47 460.208 1263.95 464.887 1271.83 461.747C1290.73 453.867 1306.49 458.607 1322.25 468.027C1326.99 471.166 1334.87 475.907 1338.01 468.027C1341.15 460.147 1334.87 457.007 1330.13 453.867C1322.25 447.588 1312.77 441.247 1306.49 433.367C1303.35 428.626 1309.63 419.207 1297.01 420.746C1295.41 420.746 1293.87 420.746 1293.87 422.347C1290.73 428.626 1298.61 427.087 1300.15 430.227C1300.21 431.827 1298.61 431.827 1295.47 431.827ZM1344.35 636.707C1339.61 622.548 1330.2 611.466 1322.32 598.908C1320.72 595.769 1317.58 592.629 1312.84 594.168C1306.56 595.769 1309.7 600.447 1311.23 603.649C1330.13 641.447 1345.89 680.847 1361.65 718.709C1364.79 726.589 1374.27 732.869 1382.15 740.748C1383.76 742.349 1385.29 742.349 1386.89 743.888C1386.89 742.287 1388.5 739.147 1386.89 742.287C1386.89 696.608 1356.98 671.428 1344.35 636.707ZM1170.99 282.107C1164.72 271.087 1169.39 266.347 1178.87 261.606C1180.48 260.006 1183.61 256.866 1180.48 256.866C1177.34 255.266 1170.99 255.266 1170.99 256.866C1166.25 267.886 1129.99 266.347 1158.37 289.987V294.728C1147.35 302.608 1150.49 326.248 1128.46 323.108C1126.85 323.108 1122.18 323.108 1125.32 326.248C1137.94 342.008 1155.23 326.248 1170.99 330.988C1175.73 332.589 1178.87 326.248 1180.48 319.969C1182.08 302.607 1186.75 288.449 1208.86 299.468C1210.46 301.069 1215.14 301.069 1215.14 297.867C1215.14 297.867 1212 294.728 1208.86 294.728H1197.84C1186.75 293.189 1177.27 293.188 1170.99 282.107ZM1454.67 624.146C1438.91 616.266 1424.76 606.785 1420.02 589.487C1418.41 586.347 1415.27 580.006 1410.53 583.208C1405.79 586.347 1407.39 591.088 1410.53 595.828C1416.81 605.308 1424.69 611.588 1427.9 621.069C1435.78 650.926 1443.66 641.446 1454.67 624.146ZM464.931 198.626C453.911 204.906 471.21 206.506 466.531 214.386C461.791 222.266 474.411 227.007 477.551 225.406C491.711 223.805 491.71 211.247 488.571 200.165C486.97 193.885 480.691 198.564 475.95 200.165C471.21 203.305 468.07 203.305 464.931 198.626ZM353.01 400.307C354.61 394.028 348.269 392.427 343.529 392.427C334.048 394.028 324.63 398.706 319.889 405.047C318.288 408.187 329.37 403.447 332.509 408.187C338.85 403.508 351.47 412.927 353.01 400.307ZM351.47 425.548C348.331 428.688 353.071 433.428 354.61 431.828C360.89 427.087 368.77 422.347 373.51 416.068C375.11 414.467 365.63 411.327 359.35 411.327C346.73 408.188 356.211 420.808 351.47 425.548ZM1317.57 877.845C1309.69 877.845 1306.55 882.585 1304.95 888.864C1304.95 893.605 1303.35 899.884 1311.23 899.884C1319.11 899.884 1319.11 890.403 1322.25 885.725C1325.45 879.445 1320.71 879.445 1317.57 877.845ZM335.71 419.26C327.83 420.861 323.09 427.14 319.95 433.419C316.811 438.16 313.671 446.04 312.07 450.781C313.671 450.781 315.21 452.381 316.811 450.781C326.291 442.901 326.291 428.742 338.85 420.862C335.71 420.8 335.71 419.26 335.71 419.26Z" fill="white"/>
</svg>
